M48
; DRILL file {KiCad (5.1.9-0-10_14)} date Saturday, April 03, 2021 at 03:32:37 PM
; FORMAT={-:-/ absolute / inch / decimal}
; #@! TF.CreationDate,2021-04-03T15:32:37+02:00
; #@! TF.GenerationSoftware,Kicad,Pcbnew,(5.1.9-0-10_14)
FMAT,2
INCH
T1C0.0157
T2C0.0276
T3C0.0295
T4C0.0315
T5C0.0354
T6C0.0394
T7C0.0472
T8C0.0866
T9C0.1260
%
G90
G05
T1
X-5.425Y42.175
X-5.3Y42.0
X-4.9Y42.889
X-4.775Y42.475
X-4.625Y42.675
X-4.525Y42.475
T2
X-5.55Y42.1748
X-5.55Y42.1
X-5.5Y43.0
X-5.5Y42.9
X-5.4252Y43.0
X-5.4252Y42.9
X-5.3248Y42.35
X-5.25Y42.35
X-4.95Y42.5498
X-4.95Y42.475
X-4.5998Y42.575
X-4.525Y42.575
X-4.475Y42.1248
X-4.475Y42.05
X-4.35Y42.6248
X-4.35Y42.55
T3
X-5.575Y42.55
X-5.525Y42.55
X-5.475Y42.55
X-4.775Y42.35
X-4.725Y42.35
X-4.675Y42.35
X-4.45Y42.35
X-4.4Y42.35
X-4.35Y42.35
T4
X-5.3Y43.1
X-5.3Y43.0
X-5.3Y42.9
X-5.3Y42.8
X-5.0Y43.1
X-5.0Y43.0
X-5.0Y42.9
X-5.0Y42.8
X-4.8Y43.1
X-4.725Y42.8
X-4.7016Y43.1
X-4.6266Y42.8
T5
X-5.3969Y41.9
X-5.2984Y41.8016
X-5.25Y42.55
X-5.2Y41.9
X-5.15Y42.55
T6
X-4.9Y42.0
X-4.9Y41.9
X-4.475Y43.2
X-4.375Y43.2
T7
X-4.2Y41.8
T8
X-4.2Y43.2
T9
X-5.65Y43.15
X-5.65Y41.85
T0
M30
