%TF.GenerationSoftware,KiCad,Pcbnew,(5.1.9-0-10_14)*%
%TF.CreationDate,2021-04-03T15:31:47+02:00*%
%TF.ProjectId,full_circuit,66756c6c-5f63-4697-9263-7569742e6b69,rev?*%
%TF.SameCoordinates,Original*%
%TF.FileFunction,Legend,Top*%
%TF.FilePolarity,Positive*%
%FSLAX46Y46*%
G04 Gerber Fmt 4.6, Leading zero omitted, Abs format (unit mm)*
G04 Created by KiCad (PCBNEW (5.1.9-0-10_14)) date 2021-04-03 15:31:47*
%MOMM*%
%LPD*%
G01*
G04 APERTURE LIST*
%ADD10C,0.150000*%
%ADD11C,0.120000*%
G04 APERTURE END LIST*
D10*
X-115585476Y1094668571D02*
X-114823571Y1094668571D01*
X-115204523Y1094287619D02*
X-115204523Y1095049523D01*
X-113871190Y1095287619D02*
X-114347380Y1095287619D01*
X-114395000Y1094811428D01*
X-114347380Y1094859047D01*
X-114252142Y1094906666D01*
X-114014047Y1094906666D01*
X-113918809Y1094859047D01*
X-113871190Y1094811428D01*
X-113823571Y1094716190D01*
X-113823571Y1094478095D01*
X-113871190Y1094382857D01*
X-113918809Y1094335238D01*
X-114014047Y1094287619D01*
X-114252142Y1094287619D01*
X-114347380Y1094335238D01*
X-114395000Y1094382857D01*
X-113537857Y1095287619D02*
X-113204523Y1094287619D01*
X-112871190Y1095287619D01*
X-111252142Y1095240000D02*
X-111347380Y1095287619D01*
X-111490238Y1095287619D01*
X-111633095Y1095240000D01*
X-111728333Y1095144761D01*
X-111775952Y1095049523D01*
X-111823571Y1094859047D01*
X-111823571Y1094716190D01*
X-111775952Y1094525714D01*
X-111728333Y1094430476D01*
X-111633095Y1094335238D01*
X-111490238Y1094287619D01*
X-111395000Y1094287619D01*
X-111252142Y1094335238D01*
X-111204523Y1094382857D01*
X-111204523Y1094716190D01*
X-111395000Y1094716190D01*
X-110775952Y1094287619D02*
X-110775952Y1095287619D01*
X-110204523Y1094287619D01*
X-110204523Y1095287619D01*
X-109728333Y1094287619D02*
X-109728333Y1095287619D01*
X-109490238Y1095287619D01*
X-109347380Y1095240000D01*
X-109252142Y1095144761D01*
X-109204523Y1095049523D01*
X-109156904Y1094859047D01*
X-109156904Y1094716190D01*
X-109204523Y1094525714D01*
X-109252142Y1094430476D01*
X-109347380Y1094335238D01*
X-109490238Y1094287619D01*
X-109728333Y1094287619D01*
X-106894285Y1072444523D02*
X-106037142Y1072444523D01*
X-105941904Y1072396904D01*
X-105894285Y1072301666D01*
X-105894285Y1072254047D01*
X-107227619Y1072444523D02*
X-107180000Y1072396904D01*
X-107132380Y1072444523D01*
X-107180000Y1072492142D01*
X-107227619Y1072444523D01*
X-107132380Y1072444523D01*
X-106227619Y1073063571D02*
X-106275238Y1072968333D01*
X-106322857Y1072920714D01*
X-106418095Y1072873095D01*
X-106703809Y1072873095D01*
X-106799047Y1072920714D01*
X-106846666Y1072968333D01*
X-106894285Y1073063571D01*
X-106894285Y1073206428D01*
X-106846666Y1073301666D01*
X-106799047Y1073349285D01*
X-106703809Y1073396904D01*
X-106418095Y1073396904D01*
X-106322857Y1073349285D01*
X-106275238Y1073301666D01*
X-106227619Y1073206428D01*
X-106227619Y1073063571D01*
X-106227619Y1074254047D02*
X-106751428Y1074254047D01*
X-106846666Y1074206428D01*
X-106894285Y1074111190D01*
X-106894285Y1073920714D01*
X-106846666Y1073825476D01*
X-106275238Y1074254047D02*
X-106227619Y1074158809D01*
X-106227619Y1073920714D01*
X-106275238Y1073825476D01*
X-106370476Y1073777857D01*
X-106465714Y1073777857D01*
X-106560952Y1073825476D01*
X-106608571Y1073920714D01*
X-106608571Y1074158809D01*
X-106656190Y1074254047D01*
X-106227619Y1074730238D02*
X-107227619Y1074730238D01*
X-106608571Y1074825476D02*
X-106227619Y1075111190D01*
X-106894285Y1075111190D02*
X-106513333Y1074730238D01*
X-106227619Y1075539761D02*
X-106894285Y1075539761D01*
X-107227619Y1075539761D02*
X-107180000Y1075492142D01*
X-107132380Y1075539761D01*
X-107180000Y1075587380D01*
X-107227619Y1075539761D01*
X-107132380Y1075539761D01*
X-106227619Y1076015952D02*
X-106894285Y1076015952D01*
X-106799047Y1076015952D02*
X-106846666Y1076063571D01*
X-106894285Y1076158809D01*
X-106894285Y1076301666D01*
X-106846666Y1076396904D01*
X-106751428Y1076444523D01*
X-106227619Y1076444523D01*
X-106751428Y1076444523D02*
X-106846666Y1076492142D01*
X-106894285Y1076587380D01*
X-106894285Y1076730238D01*
X-106846666Y1076825476D01*
X-106751428Y1076873095D01*
X-106227619Y1076873095D01*
X-106275238Y1077301666D02*
X-106227619Y1077396904D01*
X-106227619Y1077587380D01*
X-106275238Y1077682619D01*
X-106370476Y1077730238D01*
X-106418095Y1077730238D01*
X-106513333Y1077682619D01*
X-106560952Y1077587380D01*
X-106560952Y1077444523D01*
X-106608571Y1077349285D01*
X-106703809Y1077301666D01*
X-106751428Y1077301666D01*
X-106846666Y1077349285D01*
X-106894285Y1077444523D01*
X-106894285Y1077587380D01*
X-106846666Y1077682619D01*
X-106227619Y1078158809D02*
X-107227619Y1078158809D01*
X-106608571Y1078254047D02*
X-106227619Y1078539761D01*
X-106894285Y1078539761D02*
X-106513333Y1078158809D01*
X-107227619Y1079920714D02*
X-107227619Y1080015952D01*
X-107180000Y1080111190D01*
X-107132380Y1080158809D01*
X-107037142Y1080206428D01*
X-106846666Y1080254047D01*
X-106608571Y1080254047D01*
X-106418095Y1080206428D01*
X-106322857Y1080158809D01*
X-106275238Y1080111190D01*
X-106227619Y1080015952D01*
X-106227619Y1079920714D01*
X-106275238Y1079825476D01*
X-106322857Y1079777857D01*
X-106418095Y1079730238D01*
X-106608571Y1079682619D01*
X-106846666Y1079682619D01*
X-107037142Y1079730238D01*
X-107132380Y1079777857D01*
X-107180000Y1079825476D01*
X-107227619Y1079920714D01*
X-107227619Y1080587380D02*
X-107227619Y1081206428D01*
X-106846666Y1080873095D01*
X-106846666Y1081015952D01*
X-106799047Y1081111190D01*
X-106751428Y1081158809D01*
X-106656190Y1081206428D01*
X-106418095Y1081206428D01*
X-106322857Y1081158809D01*
X-106275238Y1081111190D01*
X-106227619Y1081015952D01*
X-106227619Y1080730238D01*
X-106275238Y1080635000D01*
X-106322857Y1080587380D01*
X-106322857Y1081635000D02*
X-106275238Y1081682619D01*
X-106227619Y1081635000D01*
X-106275238Y1081587380D01*
X-106322857Y1081635000D01*
X-106227619Y1081635000D01*
X-107227619Y1082301666D02*
X-107227619Y1082396904D01*
X-107180000Y1082492142D01*
X-107132380Y1082539761D01*
X-107037142Y1082587380D01*
X-106846666Y1082635000D01*
X-106608571Y1082635000D01*
X-106418095Y1082587380D01*
X-106322857Y1082539761D01*
X-106275238Y1082492142D01*
X-106227619Y1082396904D01*
X-106227619Y1082301666D01*
X-106275238Y1082206428D01*
X-106322857Y1082158809D01*
X-106418095Y1082111190D01*
X-106608571Y1082063571D01*
X-106846666Y1082063571D01*
X-107037142Y1082111190D01*
X-107132380Y1082158809D01*
X-107180000Y1082206428D01*
X-107227619Y1082301666D01*
X-106894285Y1083492142D02*
X-106227619Y1083492142D01*
X-107275238Y1083254047D02*
X-106560952Y1083015952D01*
X-106560952Y1083635000D01*
X-106322857Y1084015952D02*
X-106275238Y1084063571D01*
X-106227619Y1084015952D01*
X-106275238Y1083968333D01*
X-106322857Y1084015952D01*
X-106227619Y1084015952D01*
X-107132380Y1084444523D02*
X-107180000Y1084492142D01*
X-107227619Y1084587380D01*
X-107227619Y1084825476D01*
X-107180000Y1084920714D01*
X-107132380Y1084968333D01*
X-107037142Y1085015952D01*
X-106941904Y1085015952D01*
X-106799047Y1084968333D01*
X-106227619Y1084396904D01*
X-106227619Y1085015952D01*
X-107227619Y1085635000D02*
X-107227619Y1085730238D01*
X-107180000Y1085825476D01*
X-107132380Y1085873095D01*
X-107037142Y1085920714D01*
X-106846666Y1085968333D01*
X-106608571Y1085968333D01*
X-106418095Y1085920714D01*
X-106322857Y1085873095D01*
X-106275238Y1085825476D01*
X-106227619Y1085730238D01*
X-106227619Y1085635000D01*
X-106275238Y1085539761D01*
X-106322857Y1085492142D01*
X-106418095Y1085444523D01*
X-106608571Y1085396904D01*
X-106846666Y1085396904D01*
X-107037142Y1085444523D01*
X-107132380Y1085492142D01*
X-107180000Y1085539761D01*
X-107227619Y1085635000D01*
X-107132380Y1086349285D02*
X-107180000Y1086396904D01*
X-107227619Y1086492142D01*
X-107227619Y1086730238D01*
X-107180000Y1086825476D01*
X-107132380Y1086873095D01*
X-107037142Y1086920714D01*
X-106941904Y1086920714D01*
X-106799047Y1086873095D01*
X-106227619Y1086301666D01*
X-106227619Y1086920714D01*
X-106227619Y1087873095D02*
X-106227619Y1087301666D01*
X-106227619Y1087587380D02*
X-107227619Y1087587380D01*
X-107084761Y1087492142D01*
X-106989523Y1087396904D01*
X-106941904Y1087301666D01*
X-145962619Y1068730238D02*
X-144962619Y1069063571D01*
X-145962619Y1069396904D01*
X-144962619Y1069730238D02*
X-145629285Y1069730238D01*
X-145962619Y1069730238D02*
X-145915000Y1069682619D01*
X-145867380Y1069730238D01*
X-145915000Y1069777857D01*
X-145962619Y1069730238D01*
X-145867380Y1069730238D01*
X-144962619Y1070206428D02*
X-145962619Y1070206428D01*
X-145581666Y1070206428D02*
X-145629285Y1070301666D01*
X-145629285Y1070492142D01*
X-145581666Y1070587380D01*
X-145534047Y1070635000D01*
X-145438809Y1070682619D01*
X-145153095Y1070682619D01*
X-145057857Y1070635000D01*
X-145010238Y1070587380D01*
X-144962619Y1070492142D01*
X-144962619Y1070301666D01*
X-145010238Y1070206428D01*
X-144962619Y1071111190D02*
X-145629285Y1071111190D01*
X-145438809Y1071111190D02*
X-145534047Y1071158809D01*
X-145581666Y1071206428D01*
X-145629285Y1071301666D01*
X-145629285Y1071396904D01*
X-144962619Y1072158809D02*
X-145486428Y1072158809D01*
X-145581666Y1072111190D01*
X-145629285Y1072015952D01*
X-145629285Y1071825476D01*
X-145581666Y1071730238D01*
X-145010238Y1072158809D02*
X-144962619Y1072063571D01*
X-144962619Y1071825476D01*
X-145010238Y1071730238D01*
X-145105476Y1071682619D01*
X-145200714Y1071682619D01*
X-145295952Y1071730238D01*
X-145343571Y1071825476D01*
X-145343571Y1072063571D01*
X-145391190Y1072158809D01*
X-145629285Y1072492142D02*
X-145629285Y1072873095D01*
X-145962619Y1072635000D02*
X-145105476Y1072635000D01*
X-145010238Y1072682619D01*
X-144962619Y1072777857D01*
X-144962619Y1072873095D01*
X-144962619Y1073206428D02*
X-145629285Y1073206428D01*
X-145962619Y1073206428D02*
X-145915000Y1073158809D01*
X-145867380Y1073206428D01*
X-145915000Y1073254047D01*
X-145962619Y1073206428D01*
X-145867380Y1073206428D01*
X-144962619Y1073825476D02*
X-145010238Y1073730238D01*
X-145057857Y1073682619D01*
X-145153095Y1073635000D01*
X-145438809Y1073635000D01*
X-145534047Y1073682619D01*
X-145581666Y1073730238D01*
X-145629285Y1073825476D01*
X-145629285Y1073968333D01*
X-145581666Y1074063571D01*
X-145534047Y1074111190D01*
X-145438809Y1074158809D01*
X-145153095Y1074158809D01*
X-145057857Y1074111190D01*
X-145010238Y1074063571D01*
X-144962619Y1073968333D01*
X-144962619Y1073825476D01*
X-145629285Y1074587380D02*
X-144962619Y1074587380D01*
X-145534047Y1074587380D02*
X-145581666Y1074635000D01*
X-145629285Y1074730238D01*
X-145629285Y1074873095D01*
X-145581666Y1074968333D01*
X-145486428Y1075015952D01*
X-144962619Y1075015952D01*
X-144962619Y1076682619D02*
X-145486428Y1076682619D01*
X-145581666Y1076635000D01*
X-145629285Y1076539761D01*
X-145629285Y1076349285D01*
X-145581666Y1076254047D01*
X-145010238Y1076682619D02*
X-144962619Y1076587380D01*
X-144962619Y1076349285D01*
X-145010238Y1076254047D01*
X-145105476Y1076206428D01*
X-145200714Y1076206428D01*
X-145295952Y1076254047D01*
X-145343571Y1076349285D01*
X-145343571Y1076587380D01*
X-145391190Y1076682619D01*
X-145010238Y1077587380D02*
X-144962619Y1077492142D01*
X-144962619Y1077301666D01*
X-145010238Y1077206428D01*
X-145057857Y1077158809D01*
X-145153095Y1077111190D01*
X-145438809Y1077111190D01*
X-145534047Y1077158809D01*
X-145581666Y1077206428D01*
X-145629285Y1077301666D01*
X-145629285Y1077492142D01*
X-145581666Y1077587380D01*
X-145629285Y1077873095D02*
X-145629285Y1078254047D01*
X-145962619Y1078015952D02*
X-145105476Y1078015952D01*
X-145010238Y1078063571D01*
X-144962619Y1078158809D01*
X-144962619Y1078254047D01*
X-144962619Y1078587380D02*
X-145629285Y1078587380D01*
X-145962619Y1078587380D02*
X-145915000Y1078539761D01*
X-145867380Y1078587380D01*
X-145915000Y1078635000D01*
X-145962619Y1078587380D01*
X-145867380Y1078587380D01*
X-145629285Y1078968333D02*
X-144962619Y1079206428D01*
X-145629285Y1079444523D01*
X-144962619Y1080254047D02*
X-145486428Y1080254047D01*
X-145581666Y1080206428D01*
X-145629285Y1080111190D01*
X-145629285Y1079920714D01*
X-145581666Y1079825476D01*
X-145010238Y1080254047D02*
X-144962619Y1080158809D01*
X-144962619Y1079920714D01*
X-145010238Y1079825476D01*
X-145105476Y1079777857D01*
X-145200714Y1079777857D01*
X-145295952Y1079825476D01*
X-145343571Y1079920714D01*
X-145343571Y1080158809D01*
X-145391190Y1080254047D01*
X-145629285Y1080587380D02*
X-145629285Y1080968333D01*
X-145962619Y1080730238D02*
X-145105476Y1080730238D01*
X-145010238Y1080777857D01*
X-144962619Y1080873095D01*
X-144962619Y1080968333D01*
X-145010238Y1081682619D02*
X-144962619Y1081587380D01*
X-144962619Y1081396904D01*
X-145010238Y1081301666D01*
X-145105476Y1081254047D01*
X-145486428Y1081254047D01*
X-145581666Y1081301666D01*
X-145629285Y1081396904D01*
X-145629285Y1081587380D01*
X-145581666Y1081682619D01*
X-145486428Y1081730238D01*
X-145391190Y1081730238D01*
X-145295952Y1081254047D01*
X-144962619Y1082587380D02*
X-145962619Y1082587380D01*
X-145010238Y1082587380D02*
X-144962619Y1082492142D01*
X-144962619Y1082301666D01*
X-145010238Y1082206428D01*
X-145057857Y1082158809D01*
X-145153095Y1082111190D01*
X-145438809Y1082111190D01*
X-145534047Y1082158809D01*
X-145581666Y1082206428D01*
X-145629285Y1082301666D01*
X-145629285Y1082492142D01*
X-145581666Y1082587380D01*
X-144962619Y1084301666D02*
X-144962619Y1083825476D01*
X-145962619Y1083825476D01*
X-145486428Y1084635000D02*
X-145486428Y1084968333D01*
X-144962619Y1085111190D02*
X-144962619Y1084635000D01*
X-145962619Y1084635000D01*
X-145962619Y1085111190D01*
X-144962619Y1085539761D02*
X-145962619Y1085539761D01*
X-145962619Y1085777857D01*
X-145915000Y1085920714D01*
X-145819761Y1086015952D01*
X-145724523Y1086063571D01*
X-145534047Y1086111190D01*
X-145391190Y1086111190D01*
X-145200714Y1086063571D01*
X-145105476Y1086015952D01*
X-145010238Y1085920714D01*
X-144962619Y1085777857D01*
X-144962619Y1085539761D01*
X-145629285Y1087206428D02*
X-144962619Y1087444523D01*
X-145629285Y1087682619D01*
X-144962619Y1088587380D02*
X-144962619Y1088015952D01*
X-144962619Y1088301666D02*
X-145962619Y1088301666D01*
X-145819761Y1088206428D01*
X-145724523Y1088111190D01*
X-145676904Y1088015952D01*
X-145057857Y1089015952D02*
X-145010238Y1089063571D01*
X-144962619Y1089015952D01*
X-145010238Y1088968333D01*
X-145057857Y1089015952D01*
X-144962619Y1089015952D01*
X-145962619Y1089682619D02*
X-145962619Y1089777857D01*
X-145915000Y1089873095D01*
X-145867380Y1089920714D01*
X-145772142Y1089968333D01*
X-145581666Y1090015952D01*
X-145343571Y1090015952D01*
X-145153095Y1089968333D01*
X-145057857Y1089920714D01*
X-145010238Y1089873095D01*
X-144962619Y1089777857D01*
X-144962619Y1089682619D01*
X-145010238Y1089587380D01*
X-145057857Y1089539761D01*
X-145153095Y1089492142D01*
X-145343571Y1089444523D01*
X-145581666Y1089444523D01*
X-145772142Y1089492142D01*
X-145867380Y1089539761D01*
X-145915000Y1089587380D01*
X-145962619Y1089682619D01*
X-145057857Y1090444523D02*
X-145010238Y1090492142D01*
X-144962619Y1090444523D01*
X-145010238Y1090396904D01*
X-145057857Y1090444523D01*
X-144962619Y1090444523D01*
X-145962619Y1091111190D02*
X-145962619Y1091206428D01*
X-145915000Y1091301666D01*
X-145867380Y1091349285D01*
X-145772142Y1091396904D01*
X-145581666Y1091444523D01*
X-145343571Y1091444523D01*
X-145153095Y1091396904D01*
X-145057857Y1091349285D01*
X-145010238Y1091301666D01*
X-144962619Y1091206428D01*
X-144962619Y1091111190D01*
X-145010238Y1091015952D01*
X-145057857Y1090968333D01*
X-145153095Y1090920714D01*
X-145343571Y1090873095D01*
X-145581666Y1090873095D01*
X-145772142Y1090920714D01*
X-145867380Y1090968333D01*
X-145915000Y1091015952D01*
X-145962619Y1091111190D01*
D11*
%TO.C,U2*%
X-128160000Y1096070000D02*
X-129810000Y1096070000D01*
X-128160000Y1085790000D02*
X-128160000Y1096070000D01*
X-133460000Y1085790000D02*
X-128160000Y1085790000D01*
X-133460000Y1096070000D02*
X-133460000Y1085790000D01*
X-131810000Y1096070000D02*
X-133460000Y1096070000D01*
X-129810000Y1096070000D02*
G75*
G02*
X-131810000Y1096070000I-1000000J0D01*
G01*
%TO.C,R4*%
X-115255095Y1082154359D02*
G75*
G02*
X-115352133Y1080705000I320095J-749359D01*
G01*
%TO.C,R5*%
X-109740641Y1081090095D02*
G75*
G02*
X-111190000Y1081187133I-749359J-320095D01*
G01*
%TO.C,Q1*%
X-118215000Y1077540000D02*
X-121815000Y1077540000D01*
X-118176522Y1077528478D02*
G75*
G02*
X-120015000Y1073090000I-1838478J-1838478D01*
G01*
X-121853478Y1077528478D02*
G75*
G03*
X-120015000Y1073090000I1838478J-1838478D01*
G01*
%TO.C,REF\u002A\u002A*%
X-142259000Y1062990000D02*
G75*
G03*
X-142259000Y1062990000I-1251000J0D01*
G01*
X-105429000Y1097280000D02*
G75*
G03*
X-105429000Y1097280000I-1251000J0D01*
G01*
X-105429000Y1061720000D02*
G75*
G03*
X-105429000Y1061720000I-1251000J0D01*
G01*
X-142259000Y1096010000D02*
G75*
G03*
X-142259000Y1096010000I-1251000J0D01*
G01*
%TO.C,Q2*%
X-109960000Y1077540000D02*
X-113560000Y1077540000D01*
X-113598478Y1077528478D02*
G75*
G03*
X-111760000Y1073090000I1838478J-1838478D01*
G01*
X-109921522Y1077528478D02*
G75*
G02*
X-111760000Y1073090000I-1838478J-1838478D01*
G01*
%TO.C,Q3*%
X-138535000Y1082620000D02*
X-142135000Y1082620000D01*
X-138496522Y1082608478D02*
G75*
G02*
X-140335000Y1078170000I-1838478J-1838478D01*
G01*
X-142173478Y1082608478D02*
G75*
G03*
X-140335000Y1078170000I1838478J-1838478D01*
G01*
%TO.C,R1*%
X-141719359Y1070919905D02*
G75*
G02*
X-140270000Y1070822867I749359J320095D01*
G01*
%TO.C,R2*%
X-133670095Y1076439359D02*
G75*
G02*
X-133767133Y1074990000I320095J-749359D01*
G01*
%TO.C,R3*%
X-139379905Y1091450641D02*
G75*
G02*
X-139282867Y1092900000I-320095J749359D01*
G01*
%TO.C,R6*%
X-112915641Y1068390095D02*
G75*
G02*
X-114365000Y1068487133I-749359J-320095D01*
G01*
%TO.C,R7*%
X-139379905Y1088910641D02*
G75*
G02*
X-139282867Y1090360000I-320095J749359D01*
G01*
%TO.C,R8*%
X-124980641Y1079185095D02*
G75*
G02*
X-126430000Y1079282133I-749359J-320095D01*
G01*
%TO.C,RV1*%
X-133460000Y1060640000D02*
X-135700000Y1060640000D01*
X-133460000Y1064381000D02*
X-135700000Y1064381000D01*
X-135700000Y1064381000D02*
X-135700000Y1060640000D01*
X-133460000Y1064381000D02*
X-133460000Y1060640000D01*
X-133146000Y1064381000D02*
X-136015000Y1064381000D01*
X-131310000Y1060640000D02*
X-137850000Y1060640000D01*
X-137850000Y1063335000D02*
X-137850000Y1060640000D01*
X-131310000Y1063335000D02*
X-131310000Y1060640000D01*
%TO.C,U1*%
X-133350000Y1072220000D02*
X-136225000Y1072220000D01*
X-133350000Y1072220000D02*
X-131850000Y1072220000D01*
X-133350000Y1069000000D02*
X-134850000Y1069000000D01*
X-133350000Y1069000000D02*
X-131850000Y1069000000D01*
%TO.C,BT1*%
X-112395000Y1095950000D02*
X-112395000Y1098610000D01*
X-112395000Y1095950000D02*
X-109795000Y1095950000D01*
X-109795000Y1095950000D02*
X-109795000Y1098610000D01*
X-112395000Y1098610000D02*
X-109795000Y1098610000D01*
X-114995000Y1098610000D02*
X-113665000Y1098610000D01*
X-114995000Y1097280000D02*
X-114995000Y1098610000D01*
%TO.C,PZ1*%
X-124460000Y1062930000D02*
X-125790000Y1062930000D01*
X-125790000Y1062930000D02*
X-125790000Y1064260000D01*
X-125790000Y1065530000D02*
X-125790000Y1068130000D01*
X-123130000Y1068130000D02*
X-125790000Y1068130000D01*
X-123130000Y1065530000D02*
X-123130000Y1068130000D01*
X-123130000Y1065530000D02*
X-125790000Y1065530000D01*
%TO.C,C1*%
X-121319775Y1088845000D02*
X-121319775Y1088345000D01*
X-121569775Y1088595000D02*
X-121069775Y1088595000D01*
X-116164000Y1087404000D02*
X-116164000Y1086836000D01*
X-116204000Y1087638000D02*
X-116204000Y1086602000D01*
X-116244000Y1087797000D02*
X-116244000Y1086443000D01*
X-116284000Y1087925000D02*
X-116284000Y1086315000D01*
X-116324000Y1088035000D02*
X-116324000Y1086205000D01*
X-116364000Y1088131000D02*
X-116364000Y1086109000D01*
X-116404000Y1088218000D02*
X-116404000Y1086022000D01*
X-116444000Y1088298000D02*
X-116444000Y1085942000D01*
X-116484000Y1086080000D02*
X-116484000Y1085869000D01*
X-116484000Y1088371000D02*
X-116484000Y1088160000D01*
X-116524000Y1086080000D02*
X-116524000Y1085801000D01*
X-116524000Y1088439000D02*
X-116524000Y1088160000D01*
X-116564000Y1086080000D02*
X-116564000Y1085737000D01*
X-116564000Y1088503000D02*
X-116564000Y1088160000D01*
X-116604000Y1086080000D02*
X-116604000Y1085677000D01*
X-116604000Y1088563000D02*
X-116604000Y1088160000D01*
X-116644000Y1086080000D02*
X-116644000Y1085620000D01*
X-116644000Y1088620000D02*
X-116644000Y1088160000D01*
X-116684000Y1086080000D02*
X-116684000Y1085566000D01*
X-116684000Y1088674000D02*
X-116684000Y1088160000D01*
X-116724000Y1086080000D02*
X-116724000Y1085515000D01*
X-116724000Y1088725000D02*
X-116724000Y1088160000D01*
X-116764000Y1086080000D02*
X-116764000Y1085467000D01*
X-116764000Y1088773000D02*
X-116764000Y1088160000D01*
X-116804000Y1086080000D02*
X-116804000Y1085421000D01*
X-116804000Y1088819000D02*
X-116804000Y1088160000D01*
X-116844000Y1086080000D02*
X-116844000Y1085377000D01*
X-116844000Y1088863000D02*
X-116844000Y1088160000D01*
X-116884000Y1086080000D02*
X-116884000Y1085335000D01*
X-116884000Y1088905000D02*
X-116884000Y1088160000D01*
X-116924000Y1086080000D02*
X-116924000Y1085294000D01*
X-116924000Y1088946000D02*
X-116924000Y1088160000D01*
X-116964000Y1086080000D02*
X-116964000Y1085256000D01*
X-116964000Y1088984000D02*
X-116964000Y1088160000D01*
X-117004000Y1086080000D02*
X-117004000Y1085219000D01*
X-117004000Y1089021000D02*
X-117004000Y1088160000D01*
X-117044000Y1086080000D02*
X-117044000Y1085183000D01*
X-117044000Y1089057000D02*
X-117044000Y1088160000D01*
X-117084000Y1086080000D02*
X-117084000Y1085149000D01*
X-117084000Y1089091000D02*
X-117084000Y1088160000D01*
X-117124000Y1086080000D02*
X-117124000Y1085116000D01*
X-117124000Y1089124000D02*
X-117124000Y1088160000D01*
X-117164000Y1086080000D02*
X-117164000Y1085085000D01*
X-117164000Y1089155000D02*
X-117164000Y1088160000D01*
X-117204000Y1086080000D02*
X-117204000Y1085055000D01*
X-117204000Y1089185000D02*
X-117204000Y1088160000D01*
X-117244000Y1086080000D02*
X-117244000Y1085025000D01*
X-117244000Y1089215000D02*
X-117244000Y1088160000D01*
X-117284000Y1086080000D02*
X-117284000Y1084998000D01*
X-117284000Y1089242000D02*
X-117284000Y1088160000D01*
X-117324000Y1086080000D02*
X-117324000Y1084971000D01*
X-117324000Y1089269000D02*
X-117324000Y1088160000D01*
X-117364000Y1086080000D02*
X-117364000Y1084945000D01*
X-117364000Y1089295000D02*
X-117364000Y1088160000D01*
X-117404000Y1086080000D02*
X-117404000Y1084920000D01*
X-117404000Y1089320000D02*
X-117404000Y1088160000D01*
X-117444000Y1086080000D02*
X-117444000Y1084896000D01*
X-117444000Y1089344000D02*
X-117444000Y1088160000D01*
X-117484000Y1086080000D02*
X-117484000Y1084873000D01*
X-117484000Y1089367000D02*
X-117484000Y1088160000D01*
X-117524000Y1086080000D02*
X-117524000Y1084852000D01*
X-117524000Y1089388000D02*
X-117524000Y1088160000D01*
X-117564000Y1086080000D02*
X-117564000Y1084830000D01*
X-117564000Y1089410000D02*
X-117564000Y1088160000D01*
X-117604000Y1086080000D02*
X-117604000Y1084810000D01*
X-117604000Y1089430000D02*
X-117604000Y1088160000D01*
X-117644000Y1086080000D02*
X-117644000Y1084791000D01*
X-117644000Y1089449000D02*
X-117644000Y1088160000D01*
X-117684000Y1086080000D02*
X-117684000Y1084772000D01*
X-117684000Y1089468000D02*
X-117684000Y1088160000D01*
X-117724000Y1086080000D02*
X-117724000Y1084755000D01*
X-117724000Y1089485000D02*
X-117724000Y1088160000D01*
X-117764000Y1086080000D02*
X-117764000Y1084738000D01*
X-117764000Y1089502000D02*
X-117764000Y1088160000D01*
X-117804000Y1086080000D02*
X-117804000Y1084722000D01*
X-117804000Y1089518000D02*
X-117804000Y1088160000D01*
X-117844000Y1086080000D02*
X-117844000Y1084706000D01*
X-117844000Y1089534000D02*
X-117844000Y1088160000D01*
X-117884000Y1086080000D02*
X-117884000Y1084692000D01*
X-117884000Y1089548000D02*
X-117884000Y1088160000D01*
X-117924000Y1086080000D02*
X-117924000Y1084678000D01*
X-117924000Y1089562000D02*
X-117924000Y1088160000D01*
X-117964000Y1086080000D02*
X-117964000Y1084665000D01*
X-117964000Y1089575000D02*
X-117964000Y1088160000D01*
X-118004000Y1086080000D02*
X-118004000Y1084652000D01*
X-118004000Y1089588000D02*
X-118004000Y1088160000D01*
X-118044000Y1086080000D02*
X-118044000Y1084640000D01*
X-118044000Y1089600000D02*
X-118044000Y1088160000D01*
X-118085000Y1086080000D02*
X-118085000Y1084629000D01*
X-118085000Y1089611000D02*
X-118085000Y1088160000D01*
X-118125000Y1086080000D02*
X-118125000Y1084619000D01*
X-118125000Y1089621000D02*
X-118125000Y1088160000D01*
X-118165000Y1086080000D02*
X-118165000Y1084609000D01*
X-118165000Y1089631000D02*
X-118165000Y1088160000D01*
X-118205000Y1086080000D02*
X-118205000Y1084600000D01*
X-118205000Y1089640000D02*
X-118205000Y1088160000D01*
X-118245000Y1086080000D02*
X-118245000Y1084592000D01*
X-118245000Y1089648000D02*
X-118245000Y1088160000D01*
X-118285000Y1086080000D02*
X-118285000Y1084584000D01*
X-118285000Y1089656000D02*
X-118285000Y1088160000D01*
X-118325000Y1086080000D02*
X-118325000Y1084577000D01*
X-118325000Y1089663000D02*
X-118325000Y1088160000D01*
X-118365000Y1086080000D02*
X-118365000Y1084570000D01*
X-118365000Y1089670000D02*
X-118365000Y1088160000D01*
X-118405000Y1086080000D02*
X-118405000Y1084564000D01*
X-118405000Y1089676000D02*
X-118405000Y1088160000D01*
X-118445000Y1086080000D02*
X-118445000Y1084559000D01*
X-118445000Y1089681000D02*
X-118445000Y1088160000D01*
X-118485000Y1086080000D02*
X-118485000Y1084555000D01*
X-118485000Y1089685000D02*
X-118485000Y1088160000D01*
X-118525000Y1086080000D02*
X-118525000Y1084551000D01*
X-118525000Y1089689000D02*
X-118525000Y1088160000D01*
X-118565000Y1089693000D02*
X-118565000Y1084547000D01*
X-118605000Y1089696000D02*
X-118605000Y1084544000D01*
X-118645000Y1089698000D02*
X-118645000Y1084542000D01*
X-118685000Y1089699000D02*
X-118685000Y1084541000D01*
X-118725000Y1089700000D02*
X-118725000Y1084540000D01*
X-118765000Y1089700000D02*
X-118765000Y1084540000D01*
X-116145000Y1087120000D02*
G75*
G03*
X-116145000Y1087120000I-2620000J0D01*
G01*
%TO.C,C2*%
X-118050000Y1094740000D02*
G75*
G03*
X-118050000Y1094740000I-2620000J0D01*
G01*
X-120670000Y1097320000D02*
X-120670000Y1092160000D01*
X-120630000Y1097320000D02*
X-120630000Y1092160000D01*
X-120590000Y1097319000D02*
X-120590000Y1092161000D01*
X-120550000Y1097318000D02*
X-120550000Y1092162000D01*
X-120510000Y1097316000D02*
X-120510000Y1092164000D01*
X-120470000Y1097313000D02*
X-120470000Y1092167000D01*
X-120430000Y1097309000D02*
X-120430000Y1095780000D01*
X-120430000Y1093700000D02*
X-120430000Y1092171000D01*
X-120390000Y1097305000D02*
X-120390000Y1095780000D01*
X-120390000Y1093700000D02*
X-120390000Y1092175000D01*
X-120350000Y1097301000D02*
X-120350000Y1095780000D01*
X-120350000Y1093700000D02*
X-120350000Y1092179000D01*
X-120310000Y1097296000D02*
X-120310000Y1095780000D01*
X-120310000Y1093700000D02*
X-120310000Y1092184000D01*
X-120270000Y1097290000D02*
X-120270000Y1095780000D01*
X-120270000Y1093700000D02*
X-120270000Y1092190000D01*
X-120230000Y1097283000D02*
X-120230000Y1095780000D01*
X-120230000Y1093700000D02*
X-120230000Y1092197000D01*
X-120190000Y1097276000D02*
X-120190000Y1095780000D01*
X-120190000Y1093700000D02*
X-120190000Y1092204000D01*
X-120150000Y1097268000D02*
X-120150000Y1095780000D01*
X-120150000Y1093700000D02*
X-120150000Y1092212000D01*
X-120110000Y1097260000D02*
X-120110000Y1095780000D01*
X-120110000Y1093700000D02*
X-120110000Y1092220000D01*
X-120070000Y1097251000D02*
X-120070000Y1095780000D01*
X-120070000Y1093700000D02*
X-120070000Y1092229000D01*
X-120030000Y1097241000D02*
X-120030000Y1095780000D01*
X-120030000Y1093700000D02*
X-120030000Y1092239000D01*
X-119990000Y1097231000D02*
X-119990000Y1095780000D01*
X-119990000Y1093700000D02*
X-119990000Y1092249000D01*
X-119949000Y1097220000D02*
X-119949000Y1095780000D01*
X-119949000Y1093700000D02*
X-119949000Y1092260000D01*
X-119909000Y1097208000D02*
X-119909000Y1095780000D01*
X-119909000Y1093700000D02*
X-119909000Y1092272000D01*
X-119869000Y1097195000D02*
X-119869000Y1095780000D01*
X-119869000Y1093700000D02*
X-119869000Y1092285000D01*
X-119829000Y1097182000D02*
X-119829000Y1095780000D01*
X-119829000Y1093700000D02*
X-119829000Y1092298000D01*
X-119789000Y1097168000D02*
X-119789000Y1095780000D01*
X-119789000Y1093700000D02*
X-119789000Y1092312000D01*
X-119749000Y1097154000D02*
X-119749000Y1095780000D01*
X-119749000Y1093700000D02*
X-119749000Y1092326000D01*
X-119709000Y1097138000D02*
X-119709000Y1095780000D01*
X-119709000Y1093700000D02*
X-119709000Y1092342000D01*
X-119669000Y1097122000D02*
X-119669000Y1095780000D01*
X-119669000Y1093700000D02*
X-119669000Y1092358000D01*
X-119629000Y1097105000D02*
X-119629000Y1095780000D01*
X-119629000Y1093700000D02*
X-119629000Y1092375000D01*
X-119589000Y1097088000D02*
X-119589000Y1095780000D01*
X-119589000Y1093700000D02*
X-119589000Y1092392000D01*
X-119549000Y1097069000D02*
X-119549000Y1095780000D01*
X-119549000Y1093700000D02*
X-119549000Y1092411000D01*
X-119509000Y1097050000D02*
X-119509000Y1095780000D01*
X-119509000Y1093700000D02*
X-119509000Y1092430000D01*
X-119469000Y1097030000D02*
X-119469000Y1095780000D01*
X-119469000Y1093700000D02*
X-119469000Y1092450000D01*
X-119429000Y1097008000D02*
X-119429000Y1095780000D01*
X-119429000Y1093700000D02*
X-119429000Y1092472000D01*
X-119389000Y1096987000D02*
X-119389000Y1095780000D01*
X-119389000Y1093700000D02*
X-119389000Y1092493000D01*
X-119349000Y1096964000D02*
X-119349000Y1095780000D01*
X-119349000Y1093700000D02*
X-119349000Y1092516000D01*
X-119309000Y1096940000D02*
X-119309000Y1095780000D01*
X-119309000Y1093700000D02*
X-119309000Y1092540000D01*
X-119269000Y1096915000D02*
X-119269000Y1095780000D01*
X-119269000Y1093700000D02*
X-119269000Y1092565000D01*
X-119229000Y1096889000D02*
X-119229000Y1095780000D01*
X-119229000Y1093700000D02*
X-119229000Y1092591000D01*
X-119189000Y1096862000D02*
X-119189000Y1095780000D01*
X-119189000Y1093700000D02*
X-119189000Y1092618000D01*
X-119149000Y1096835000D02*
X-119149000Y1095780000D01*
X-119149000Y1093700000D02*
X-119149000Y1092645000D01*
X-119109000Y1096805000D02*
X-119109000Y1095780000D01*
X-119109000Y1093700000D02*
X-119109000Y1092675000D01*
X-119069000Y1096775000D02*
X-119069000Y1095780000D01*
X-119069000Y1093700000D02*
X-119069000Y1092705000D01*
X-119029000Y1096744000D02*
X-119029000Y1095780000D01*
X-119029000Y1093700000D02*
X-119029000Y1092736000D01*
X-118989000Y1096711000D02*
X-118989000Y1095780000D01*
X-118989000Y1093700000D02*
X-118989000Y1092769000D01*
X-118949000Y1096677000D02*
X-118949000Y1095780000D01*
X-118949000Y1093700000D02*
X-118949000Y1092803000D01*
X-118909000Y1096641000D02*
X-118909000Y1095780000D01*
X-118909000Y1093700000D02*
X-118909000Y1092839000D01*
X-118869000Y1096604000D02*
X-118869000Y1095780000D01*
X-118869000Y1093700000D02*
X-118869000Y1092876000D01*
X-118829000Y1096566000D02*
X-118829000Y1095780000D01*
X-118829000Y1093700000D02*
X-118829000Y1092914000D01*
X-118789000Y1096525000D02*
X-118789000Y1095780000D01*
X-118789000Y1093700000D02*
X-118789000Y1092955000D01*
X-118749000Y1096483000D02*
X-118749000Y1095780000D01*
X-118749000Y1093700000D02*
X-118749000Y1092997000D01*
X-118709000Y1096439000D02*
X-118709000Y1095780000D01*
X-118709000Y1093700000D02*
X-118709000Y1093041000D01*
X-118669000Y1096393000D02*
X-118669000Y1095780000D01*
X-118669000Y1093700000D02*
X-118669000Y1093087000D01*
X-118629000Y1096345000D02*
X-118629000Y1095780000D01*
X-118629000Y1093700000D02*
X-118629000Y1093135000D01*
X-118589000Y1096294000D02*
X-118589000Y1095780000D01*
X-118589000Y1093700000D02*
X-118589000Y1093186000D01*
X-118549000Y1096240000D02*
X-118549000Y1095780000D01*
X-118549000Y1093700000D02*
X-118549000Y1093240000D01*
X-118509000Y1096183000D02*
X-118509000Y1095780000D01*
X-118509000Y1093700000D02*
X-118509000Y1093297000D01*
X-118469000Y1096123000D02*
X-118469000Y1095780000D01*
X-118469000Y1093700000D02*
X-118469000Y1093357000D01*
X-118429000Y1096059000D02*
X-118429000Y1095780000D01*
X-118429000Y1093700000D02*
X-118429000Y1093421000D01*
X-118389000Y1095991000D02*
X-118389000Y1095780000D01*
X-118389000Y1093700000D02*
X-118389000Y1093489000D01*
X-118349000Y1095918000D02*
X-118349000Y1093562000D01*
X-118309000Y1095838000D02*
X-118309000Y1093642000D01*
X-118269000Y1095751000D02*
X-118269000Y1093729000D01*
X-118229000Y1095655000D02*
X-118229000Y1093825000D01*
X-118189000Y1095545000D02*
X-118189000Y1093935000D01*
X-118149000Y1095417000D02*
X-118149000Y1094063000D01*
X-118109000Y1095258000D02*
X-118109000Y1094222000D01*
X-118069000Y1095024000D02*
X-118069000Y1094456000D01*
X-123474775Y1096215000D02*
X-122974775Y1096215000D01*
X-123224775Y1096465000D02*
X-123224775Y1095965000D01*
%TO.C,D1*%
X-134640000Y1082315000D02*
X-134640000Y1079225000D01*
X-129580000Y1080770000D02*
G75*
G03*
X-129580000Y1080770000I-2500000J0D01*
G01*
X-129090000Y1080769538D02*
G75*
G03*
X-134640000Y1082314830I-2990000J462D01*
G01*
X-129090000Y1080770462D02*
G75*
G02*
X-134640000Y1079225170I-2990000J-462D01*
G01*
%TO.C,U2*%
D10*
X-131571904Y1097617619D02*
X-131571904Y1096808095D01*
X-131524285Y1096712857D01*
X-131476666Y1096665238D01*
X-131381428Y1096617619D01*
X-131190952Y1096617619D01*
X-131095714Y1096665238D01*
X-131048095Y1096712857D01*
X-131000476Y1096808095D01*
X-131000476Y1097617619D01*
X-130571904Y1097522380D02*
X-130524285Y1097570000D01*
X-130429047Y1097617619D01*
X-130190952Y1097617619D01*
X-130095714Y1097570000D01*
X-130048095Y1097522380D01*
X-130000476Y1097427142D01*
X-130000476Y1097331904D01*
X-130048095Y1097189047D01*
X-130619523Y1096617619D01*
X-130000476Y1096617619D01*
%TO.C,R4*%
X-116051666Y1079032619D02*
X-116385000Y1079508809D01*
X-116623095Y1079032619D02*
X-116623095Y1080032619D01*
X-116242142Y1080032619D01*
X-116146904Y1079985000D01*
X-116099285Y1079937380D01*
X-116051666Y1079842142D01*
X-116051666Y1079699285D01*
X-116099285Y1079604047D01*
X-116146904Y1079556428D01*
X-116242142Y1079508809D01*
X-116623095Y1079508809D01*
X-115194523Y1079699285D02*
X-115194523Y1079032619D01*
X-115432619Y1080080238D02*
X-115670714Y1079365952D01*
X-115051666Y1079365952D01*
%TO.C,R5*%
X-111957619Y1081553333D02*
X-112433809Y1081220000D01*
X-111957619Y1080981904D02*
X-112957619Y1080981904D01*
X-112957619Y1081362857D01*
X-112910000Y1081458095D01*
X-112862380Y1081505714D01*
X-112767142Y1081553333D01*
X-112624285Y1081553333D01*
X-112529047Y1081505714D01*
X-112481428Y1081458095D01*
X-112433809Y1081362857D01*
X-112433809Y1080981904D01*
X-112957619Y1082458095D02*
X-112957619Y1081981904D01*
X-112481428Y1081934285D01*
X-112529047Y1081981904D01*
X-112576666Y1082077142D01*
X-112576666Y1082315238D01*
X-112529047Y1082410476D01*
X-112481428Y1082458095D01*
X-112386190Y1082505714D01*
X-112148095Y1082505714D01*
X-112052857Y1082458095D01*
X-112005238Y1082410476D01*
X-111957619Y1082315238D01*
X-111957619Y1082077142D01*
X-112005238Y1081981904D01*
X-112052857Y1081934285D01*
%TO.C,Q1*%
X-120110238Y1071582380D02*
X-120205476Y1071630000D01*
X-120300714Y1071725238D01*
X-120443571Y1071868095D01*
X-120538809Y1071915714D01*
X-120634047Y1071915714D01*
X-120586428Y1071677619D02*
X-120681666Y1071725238D01*
X-120776904Y1071820476D01*
X-120824523Y1072010952D01*
X-120824523Y1072344285D01*
X-120776904Y1072534761D01*
X-120681666Y1072630000D01*
X-120586428Y1072677619D01*
X-120395952Y1072677619D01*
X-120300714Y1072630000D01*
X-120205476Y1072534761D01*
X-120157857Y1072344285D01*
X-120157857Y1072010952D01*
X-120205476Y1071820476D01*
X-120300714Y1071725238D01*
X-120395952Y1071677619D01*
X-120586428Y1071677619D01*
X-119205476Y1071677619D02*
X-119776904Y1071677619D01*
X-119491190Y1071677619D02*
X-119491190Y1072677619D01*
X-119586428Y1072534761D01*
X-119681666Y1072439523D01*
X-119776904Y1072391904D01*
%TO.C,Q2*%
X-111855238Y1071582380D02*
X-111950476Y1071630000D01*
X-112045714Y1071725238D01*
X-112188571Y1071868095D01*
X-112283809Y1071915714D01*
X-112379047Y1071915714D01*
X-112331428Y1071677619D02*
X-112426666Y1071725238D01*
X-112521904Y1071820476D01*
X-112569523Y1072010952D01*
X-112569523Y1072344285D01*
X-112521904Y1072534761D01*
X-112426666Y1072630000D01*
X-112331428Y1072677619D01*
X-112140952Y1072677619D01*
X-112045714Y1072630000D01*
X-111950476Y1072534761D01*
X-111902857Y1072344285D01*
X-111902857Y1072010952D01*
X-111950476Y1071820476D01*
X-112045714Y1071725238D01*
X-112140952Y1071677619D01*
X-112331428Y1071677619D01*
X-111521904Y1072582380D02*
X-111474285Y1072630000D01*
X-111379047Y1072677619D01*
X-111140952Y1072677619D01*
X-111045714Y1072630000D01*
X-110998095Y1072582380D01*
X-110950476Y1072487142D01*
X-110950476Y1072391904D01*
X-110998095Y1072249047D01*
X-111569523Y1071677619D01*
X-110950476Y1071677619D01*
%TO.C,Q3*%
X-140430238Y1076662380D02*
X-140525476Y1076710000D01*
X-140620714Y1076805238D01*
X-140763571Y1076948095D01*
X-140858809Y1076995714D01*
X-140954047Y1076995714D01*
X-140906428Y1076757619D02*
X-141001666Y1076805238D01*
X-141096904Y1076900476D01*
X-141144523Y1077090952D01*
X-141144523Y1077424285D01*
X-141096904Y1077614761D01*
X-141001666Y1077710000D01*
X-140906428Y1077757619D01*
X-140715952Y1077757619D01*
X-140620714Y1077710000D01*
X-140525476Y1077614761D01*
X-140477857Y1077424285D01*
X-140477857Y1077090952D01*
X-140525476Y1076900476D01*
X-140620714Y1076805238D01*
X-140715952Y1076757619D01*
X-140906428Y1076757619D01*
X-140144523Y1077757619D02*
X-139525476Y1077757619D01*
X-139858809Y1077376666D01*
X-139715952Y1077376666D01*
X-139620714Y1077329047D01*
X-139573095Y1077281428D01*
X-139525476Y1077186190D01*
X-139525476Y1076948095D01*
X-139573095Y1076852857D01*
X-139620714Y1076805238D01*
X-139715952Y1076757619D01*
X-140001666Y1076757619D01*
X-140096904Y1076805238D01*
X-140144523Y1076852857D01*
%TO.C,R1*%
X-138597619Y1070123333D02*
X-139073809Y1069790000D01*
X-138597619Y1069551904D02*
X-139597619Y1069551904D01*
X-139597619Y1069932857D01*
X-139550000Y1070028095D01*
X-139502380Y1070075714D01*
X-139407142Y1070123333D01*
X-139264285Y1070123333D01*
X-139169047Y1070075714D01*
X-139121428Y1070028095D01*
X-139073809Y1069932857D01*
X-139073809Y1069551904D01*
X-138597619Y1071075714D02*
X-138597619Y1070504285D01*
X-138597619Y1070790000D02*
X-139597619Y1070790000D01*
X-139454761Y1070694761D01*
X-139359523Y1070599523D01*
X-139311904Y1070504285D01*
%TO.C,R2*%
X-135421666Y1077142619D02*
X-135755000Y1077618809D01*
X-135993095Y1077142619D02*
X-135993095Y1078142619D01*
X-135612142Y1078142619D01*
X-135516904Y1078095000D01*
X-135469285Y1078047380D01*
X-135421666Y1077952142D01*
X-135421666Y1077809285D01*
X-135469285Y1077714047D01*
X-135516904Y1077666428D01*
X-135612142Y1077618809D01*
X-135993095Y1077618809D01*
X-135040714Y1078047380D02*
X-134993095Y1078095000D01*
X-134897857Y1078142619D01*
X-134659761Y1078142619D01*
X-134564523Y1078095000D01*
X-134516904Y1078047380D01*
X-134469285Y1077952142D01*
X-134469285Y1077856904D01*
X-134516904Y1077714047D01*
X-135088333Y1077142619D01*
X-134469285Y1077142619D01*
%TO.C,R3*%
X-138916666Y1093667619D02*
X-139250000Y1094143809D01*
X-139488095Y1093667619D02*
X-139488095Y1094667619D01*
X-139107142Y1094667619D01*
X-139011904Y1094620000D01*
X-138964285Y1094572380D01*
X-138916666Y1094477142D01*
X-138916666Y1094334285D01*
X-138964285Y1094239047D01*
X-139011904Y1094191428D01*
X-139107142Y1094143809D01*
X-139488095Y1094143809D01*
X-138583333Y1094667619D02*
X-137964285Y1094667619D01*
X-138297619Y1094286666D01*
X-138154761Y1094286666D01*
X-138059523Y1094239047D01*
X-138011904Y1094191428D01*
X-137964285Y1094096190D01*
X-137964285Y1093858095D01*
X-138011904Y1093762857D01*
X-138059523Y1093715238D01*
X-138154761Y1093667619D01*
X-138440476Y1093667619D01*
X-138535714Y1093715238D01*
X-138583333Y1093762857D01*
%TO.C,R6*%
X-115132619Y1068853333D02*
X-115608809Y1068520000D01*
X-115132619Y1068281904D02*
X-116132619Y1068281904D01*
X-116132619Y1068662857D01*
X-116085000Y1068758095D01*
X-116037380Y1068805714D01*
X-115942142Y1068853333D01*
X-115799285Y1068853333D01*
X-115704047Y1068805714D01*
X-115656428Y1068758095D01*
X-115608809Y1068662857D01*
X-115608809Y1068281904D01*
X-116132619Y1069710476D02*
X-116132619Y1069520000D01*
X-116085000Y1069424761D01*
X-116037380Y1069377142D01*
X-115894523Y1069281904D01*
X-115704047Y1069234285D01*
X-115323095Y1069234285D01*
X-115227857Y1069281904D01*
X-115180238Y1069329523D01*
X-115132619Y1069424761D01*
X-115132619Y1069615238D01*
X-115180238Y1069710476D01*
X-115227857Y1069758095D01*
X-115323095Y1069805714D01*
X-115561190Y1069805714D01*
X-115656428Y1069758095D01*
X-115704047Y1069710476D01*
X-115751666Y1069615238D01*
X-115751666Y1069424761D01*
X-115704047Y1069329523D01*
X-115656428Y1069281904D01*
X-115561190Y1069234285D01*
%TO.C,R7*%
X-138916666Y1091127619D02*
X-139250000Y1091603809D01*
X-139488095Y1091127619D02*
X-139488095Y1092127619D01*
X-139107142Y1092127619D01*
X-139011904Y1092080000D01*
X-138964285Y1092032380D01*
X-138916666Y1091937142D01*
X-138916666Y1091794285D01*
X-138964285Y1091699047D01*
X-139011904Y1091651428D01*
X-139107142Y1091603809D01*
X-139488095Y1091603809D01*
X-138583333Y1092127619D02*
X-137916666Y1092127619D01*
X-138345238Y1091127619D01*
%TO.C,R8*%
X-127197619Y1078698333D02*
X-127673809Y1078365000D01*
X-127197619Y1078126904D02*
X-128197619Y1078126904D01*
X-128197619Y1078507857D01*
X-128150000Y1078603095D01*
X-128102380Y1078650714D01*
X-128007142Y1078698333D01*
X-127864285Y1078698333D01*
X-127769047Y1078650714D01*
X-127721428Y1078603095D01*
X-127673809Y1078507857D01*
X-127673809Y1078126904D01*
X-127769047Y1079269761D02*
X-127816666Y1079174523D01*
X-127864285Y1079126904D01*
X-127959523Y1079079285D01*
X-128007142Y1079079285D01*
X-128102380Y1079126904D01*
X-128150000Y1079174523D01*
X-128197619Y1079269761D01*
X-128197619Y1079460238D01*
X-128150000Y1079555476D01*
X-128102380Y1079603095D01*
X-128007142Y1079650714D01*
X-127959523Y1079650714D01*
X-127864285Y1079603095D01*
X-127816666Y1079555476D01*
X-127769047Y1079460238D01*
X-127769047Y1079269761D01*
X-127721428Y1079174523D01*
X-127673809Y1079126904D01*
X-127578571Y1079079285D01*
X-127388095Y1079079285D01*
X-127292857Y1079126904D01*
X-127245238Y1079174523D01*
X-127197619Y1079269761D01*
X-127197619Y1079460238D01*
X-127245238Y1079555476D01*
X-127292857Y1079603095D01*
X-127388095Y1079650714D01*
X-127578571Y1079650714D01*
X-127673809Y1079603095D01*
X-127721428Y1079555476D01*
X-127769047Y1079460238D01*
%TO.C,RV1*%
X-129567619Y1063664761D02*
X-130043809Y1063331428D01*
X-129567619Y1063093333D02*
X-130567619Y1063093333D01*
X-130567619Y1063474285D01*
X-130520000Y1063569523D01*
X-130472380Y1063617142D01*
X-130377142Y1063664761D01*
X-130234285Y1063664761D01*
X-130139047Y1063617142D01*
X-130091428Y1063569523D01*
X-130043809Y1063474285D01*
X-130043809Y1063093333D01*
X-130567619Y1063950476D02*
X-129567619Y1064283809D01*
X-130567619Y1064617142D01*
X-129567619Y1065474285D02*
X-129567619Y1064902857D01*
X-129567619Y1065188571D02*
X-130567619Y1065188571D01*
X-130424761Y1065093333D01*
X-130329523Y1064998095D01*
X-130281904Y1064902857D01*
%TO.C,U1*%
X-133476904Y1068617619D02*
X-133476904Y1067808095D01*
X-133429285Y1067712857D01*
X-133381666Y1067665238D01*
X-133286428Y1067617619D01*
X-133095952Y1067617619D01*
X-133000714Y1067665238D01*
X-132953095Y1067712857D01*
X-132905476Y1067808095D01*
X-132905476Y1068617619D01*
X-131905476Y1067617619D02*
X-132476904Y1067617619D01*
X-132191190Y1067617619D02*
X-132191190Y1068617619D01*
X-132286428Y1068474761D01*
X-132381666Y1068379523D01*
X-132476904Y1068331904D01*
%TO.C,BT1*%
X-116506428Y1096494285D02*
X-116458809Y1096637142D01*
X-116411190Y1096684761D01*
X-116315952Y1096732380D01*
X-116173095Y1096732380D01*
X-116077857Y1096684761D01*
X-116030238Y1096637142D01*
X-115982619Y1096541904D01*
X-115982619Y1096160952D01*
X-116982619Y1096160952D01*
X-116982619Y1096494285D01*
X-116935000Y1096589523D01*
X-116887380Y1096637142D01*
X-116792142Y1096684761D01*
X-116696904Y1096684761D01*
X-116601666Y1096637142D01*
X-116554047Y1096589523D01*
X-116506428Y1096494285D01*
X-116506428Y1096160952D01*
X-116982619Y1097018095D02*
X-116982619Y1097589523D01*
X-115982619Y1097303809D02*
X-116982619Y1097303809D01*
X-115982619Y1098446666D02*
X-115982619Y1097875238D01*
X-115982619Y1098160952D02*
X-116982619Y1098160952D01*
X-116839761Y1098065714D01*
X-116744523Y1097970476D01*
X-116696904Y1097875238D01*
%TO.C,PZ1*%
X-125674285Y1061037619D02*
X-125674285Y1062037619D01*
X-125293333Y1062037619D01*
X-125198095Y1061990000D01*
X-125150476Y1061942380D01*
X-125102857Y1061847142D01*
X-125102857Y1061704285D01*
X-125150476Y1061609047D01*
X-125198095Y1061561428D01*
X-125293333Y1061513809D01*
X-125674285Y1061513809D01*
X-124769523Y1062037619D02*
X-124102857Y1062037619D01*
X-124769523Y1061037619D01*
X-124102857Y1061037619D01*
X-123198095Y1061037619D02*
X-123769523Y1061037619D01*
X-123483809Y1061037619D02*
X-123483809Y1062037619D01*
X-123579047Y1061894761D01*
X-123674285Y1061799523D01*
X-123769523Y1061751904D01*
%TO.C,C1*%
X-118931666Y1090512857D02*
X-118979285Y1090465238D01*
X-119122142Y1090417619D01*
X-119217380Y1090417619D01*
X-119360238Y1090465238D01*
X-119455476Y1090560476D01*
X-119503095Y1090655714D01*
X-119550714Y1090846190D01*
X-119550714Y1090989047D01*
X-119503095Y1091179523D01*
X-119455476Y1091274761D01*
X-119360238Y1091370000D01*
X-119217380Y1091417619D01*
X-119122142Y1091417619D01*
X-118979285Y1091370000D01*
X-118931666Y1091322380D01*
X-117979285Y1090417619D02*
X-118550714Y1090417619D01*
X-118265000Y1090417619D02*
X-118265000Y1091417619D01*
X-118360238Y1091274761D01*
X-118455476Y1091179523D01*
X-118550714Y1091131904D01*
%TO.C,C2*%
X-120836666Y1098132857D02*
X-120884285Y1098085238D01*
X-121027142Y1098037619D01*
X-121122380Y1098037619D01*
X-121265238Y1098085238D01*
X-121360476Y1098180476D01*
X-121408095Y1098275714D01*
X-121455714Y1098466190D01*
X-121455714Y1098609047D01*
X-121408095Y1098799523D01*
X-121360476Y1098894761D01*
X-121265238Y1098990000D01*
X-121122380Y1099037619D01*
X-121027142Y1099037619D01*
X-120884285Y1098990000D01*
X-120836666Y1098942380D01*
X-120455714Y1098942380D02*
X-120408095Y1098990000D01*
X-120312857Y1099037619D01*
X-120074761Y1099037619D01*
X-119979523Y1098990000D01*
X-119931904Y1098942380D01*
X-119884285Y1098847142D01*
X-119884285Y1098751904D01*
X-119931904Y1098609047D01*
X-120503333Y1098037619D01*
X-119884285Y1098037619D01*
%TO.C,D1*%
X-132818095Y1084277619D02*
X-132818095Y1085277619D01*
X-132580000Y1085277619D01*
X-132437142Y1085230000D01*
X-132341904Y1085134761D01*
X-132294285Y1085039523D01*
X-132246666Y1084849047D01*
X-132246666Y1084706190D01*
X-132294285Y1084515714D01*
X-132341904Y1084420476D01*
X-132437142Y1084325238D01*
X-132580000Y1084277619D01*
X-132818095Y1084277619D01*
X-131294285Y1084277619D02*
X-131865714Y1084277619D01*
X-131580000Y1084277619D02*
X-131580000Y1085277619D01*
X-131675238Y1085134761D01*
X-131770476Y1085039523D01*
X-131865714Y1084991904D01*
%TD*%
M02*
