%TF.GenerationSoftware,KiCad,Pcbnew,(5.1.9-0-10_14)*%
%TF.CreationDate,2021-04-03T15:31:47+02:00*%
%TF.ProjectId,full_circuit,66756c6c-5f63-4697-9263-7569742e6b69,rev?*%
%TF.SameCoordinates,Original*%
%TF.FileFunction,Copper,L2,Bot*%
%TF.FilePolarity,Positive*%
%FSLAX46Y46*%
G04 Gerber Fmt 4.6, Leading zero omitted, Abs format (unit mm)*
G04 Created by KiCad (PCBNEW (5.1.9-0-10_14)) date 2021-04-03 15:31:47*
%MOMM*%
%LPD*%
G01*
G04 APERTURE LIST*
%TA.AperFunction,ComponentPad*%
%ADD10R,1.600000X1.600000*%
%TD*%
%TA.AperFunction,ComponentPad*%
%ADD11O,1.600000X1.600000*%
%TD*%
%TA.AperFunction,ComponentPad*%
%ADD12O,1.400000X1.400000*%
%TD*%
%TA.AperFunction,ComponentPad*%
%ADD13C,1.400000*%
%TD*%
%TA.AperFunction,ComponentPad*%
%ADD14O,1.050000X1.500000*%
%TD*%
%TA.AperFunction,ComponentPad*%
%ADD15R,1.050000X1.500000*%
%TD*%
%TA.AperFunction,ComponentPad*%
%ADD16C,5.000000*%
%TD*%
%TA.AperFunction,ComponentPad*%
%ADD17C,3.000000*%
%TD*%
%TA.AperFunction,ComponentPad*%
%ADD18C,2.000000*%
%TD*%
%TA.AperFunction,ComponentPad*%
%ADD19C,1.620000*%
%TD*%
%TA.AperFunction,ComponentPad*%
%ADD20R,1.700000X1.700000*%
%TD*%
%TA.AperFunction,ComponentPad*%
%ADD21O,1.700000X1.700000*%
%TD*%
%TA.AperFunction,ComponentPad*%
%ADD22C,1.600000*%
%TD*%
%TA.AperFunction,ComponentPad*%
%ADD23R,1.800000X1.800000*%
%TD*%
%TA.AperFunction,ComponentPad*%
%ADD24C,1.800000*%
%TD*%
%TA.AperFunction,ViaPad*%
%ADD25C,0.800000*%
%TD*%
%TA.AperFunction,Conductor*%
%ADD26C,0.250000*%
%TD*%
%TA.AperFunction,Conductor*%
%ADD27C,0.254000*%
%TD*%
%TA.AperFunction,Conductor*%
%ADD28C,0.100000*%
%TD*%
G04 APERTURE END LIST*
D10*
%TO.P,U2,1*%
%TO.N,GND*%
X-134620000Y1094740000D03*
D11*
%TO.P,U2,5*%
%TO.N,Net-(C1-Pad1)*%
X-127000000Y1087120000D03*
%TO.P,U2,2*%
%TO.N,Net-(Q1-Pad1)*%
X-134620000Y1092200000D03*
%TO.P,U2,6*%
%TO.N,Net-(C2-Pad1)*%
X-127000000Y1089660000D03*
%TO.P,U2,3*%
%TO.N,Net-(R7-Pad2)*%
X-134620000Y1089660000D03*
%TO.P,U2,7*%
%TO.N,Net-(C2-Pad1)*%
X-127000000Y1092200000D03*
%TO.P,U2,4*%
%TO.N,VCC*%
X-134620000Y1087120000D03*
%TO.P,U2,8*%
X-127000000Y1094740000D03*
%TD*%
D12*
%TO.P,R4,2*%
%TO.N,Net-(Q1-Pad1)*%
X-116835000Y1081405000D03*
D13*
%TO.P,R4,1*%
%TO.N,Net-(Q2-Pad2)*%
X-114935000Y1081405000D03*
%TD*%
%TO.P,R5,1*%
%TO.N,Net-(Q2-Pad1)*%
X-110490000Y1080770000D03*
D12*
%TO.P,R5,2*%
%TO.N,GND*%
X-110490000Y1082670000D03*
%TD*%
D14*
%TO.P,Q1,2*%
%TO.N,Net-(Q1-Pad2)*%
X-120015000Y1075690000D03*
%TO.P,Q1,3*%
%TO.N,GND*%
X-121285000Y1075690000D03*
D15*
%TO.P,Q1,1*%
%TO.N,Net-(Q1-Pad1)*%
X-118745000Y1075690000D03*
%TD*%
D16*
%TO.P,REF\u002A\u002A,*%
%TO.N,*%
X-143510000Y1062990000D03*
%TD*%
D17*
%TO.P,REF\u002A\u002A,1*%
%TO.N,N/C*%
X-106680000Y1097280000D03*
%TD*%
D18*
%TO.P,REF\u002A\u002A,*%
%TO.N,*%
X-106680000Y1061720000D03*
%TD*%
D16*
%TO.P,REF\u002A\u002A,*%
%TO.N,*%
X-143510000Y1096010000D03*
%TD*%
D15*
%TO.P,Q2,1*%
%TO.N,Net-(Q2-Pad1)*%
X-110490000Y1075690000D03*
D14*
%TO.P,Q2,3*%
%TO.N,Net-(C2-Pad1)*%
X-113030000Y1075690000D03*
%TO.P,Q2,2*%
%TO.N,Net-(Q2-Pad2)*%
X-111760000Y1075690000D03*
%TD*%
%TO.P,Q3,2*%
%TO.N,Net-(Q3-Pad2)*%
X-140335000Y1080770000D03*
%TO.P,Q3,3*%
%TO.N,GND*%
X-141605000Y1080770000D03*
D15*
%TO.P,Q3,1*%
%TO.N,Net-(D1-Pad1)*%
X-139065000Y1080770000D03*
%TD*%
D12*
%TO.P,R1,2*%
%TO.N,GND*%
X-140970000Y1069340000D03*
D13*
%TO.P,R1,1*%
%TO.N,Net-(PZ1-Pad2)*%
X-140970000Y1071240000D03*
%TD*%
%TO.P,R2,1*%
%TO.N,Net-(Q1-Pad2)*%
X-133350000Y1075690000D03*
D12*
%TO.P,R2,2*%
%TO.N,Net-(R2-Pad2)*%
X-135250000Y1075690000D03*
%TD*%
%TO.P,R3,2*%
%TO.N,Net-(Q1-Pad1)*%
X-137800000Y1092200000D03*
D13*
%TO.P,R3,1*%
%TO.N,VCC*%
X-139700000Y1092200000D03*
%TD*%
%TO.P,R6,1*%
%TO.N,VCC*%
X-113665000Y1068070000D03*
D12*
%TO.P,R6,2*%
%TO.N,Net-(C2-Pad1)*%
X-113665000Y1069970000D03*
%TD*%
%TO.P,R7,2*%
%TO.N,Net-(R7-Pad2)*%
X-137800000Y1089660000D03*
D13*
%TO.P,R7,1*%
%TO.N,Net-(Q3-Pad2)*%
X-139700000Y1089660000D03*
%TD*%
%TO.P,R8,1*%
%TO.N,VCC*%
X-125730000Y1078865000D03*
D12*
%TO.P,R8,2*%
%TO.N,Net-(D1-Pad2)*%
X-125730000Y1080765000D03*
%TD*%
D19*
%TO.P,RV1,3*%
%TO.N,GND*%
X-137080000Y1064260000D03*
%TO.P,RV1,2*%
%TO.N,Net-(RV1-Pad2)*%
X-134580000Y1061760000D03*
%TO.P,RV1,1*%
%TO.N,VCC*%
X-132080000Y1064260000D03*
%TD*%
D20*
%TO.P,BT1,1*%
%TO.N,VCC*%
X-113665000Y1097280000D03*
D21*
%TO.P,BT1,2*%
%TO.N,GND*%
X-111125000Y1097280000D03*
%TD*%
%TO.P,PZ1,2*%
%TO.N,Net-(PZ1-Pad2)*%
X-124460000Y1066800000D03*
D20*
%TO.P,PZ1,1*%
%TO.N,VCC*%
X-124460000Y1064260000D03*
%TD*%
D10*
%TO.P,C1,1*%
%TO.N,Net-(C1-Pad1)*%
X-120015000Y1087120000D03*
D22*
%TO.P,C1,2*%
%TO.N,GND*%
X-117515000Y1087120000D03*
%TD*%
%TO.P,C2,2*%
%TO.N,GND*%
X-119420000Y1094740000D03*
D10*
%TO.P,C2,1*%
%TO.N,Net-(C2-Pad1)*%
X-121920000Y1094740000D03*
%TD*%
D23*
%TO.P,D1,1*%
%TO.N,Net-(D1-Pad1)*%
X-133350000Y1080770000D03*
D24*
%TO.P,D1,2*%
%TO.N,Net-(D1-Pad2)*%
X-130810000Y1080770000D03*
%TD*%
D25*
%TO.N,GND*%
X-121285000Y1078865000D03*
X-117475000Y1083945000D03*
%TO.N,Net-(C2-Pad1)*%
X-114935000Y1078865000D03*
X-124460000Y1089379998D03*
%TO.N,Net-(RV1-Pad2)*%
X-134620000Y1066800000D03*
X-137795000Y1071245000D03*
%TD*%
D26*
%TO.N,GND*%
X-121285000Y1078865000D02*
X-121285000Y1080135000D01*
X-121285000Y1080135000D02*
X-117475000Y1083945000D01*
%TO.N,Net-(C2-Pad1)*%
X-118007997Y1085994999D02*
X-121075001Y1085994999D01*
X-113909999Y1081897001D02*
X-118007997Y1085994999D01*
X-121075001Y1085994999D02*
X-124460000Y1089379998D01*
X-113909999Y1079890001D02*
X-113909999Y1081897001D01*
X-114935000Y1078865000D02*
X-113909999Y1079890001D01*
%TO.N,Net-(RV1-Pad2)*%
X-134620000Y1066800000D02*
X-134620000Y1068070000D01*
X-134620000Y1068070000D02*
X-137795000Y1071245000D01*
%TD*%
D27*
%TO.N,GND*%
X-108040983Y1098938363D02*
X-108338363Y1098640983D01*
X-108572012Y1098291302D01*
X-108732953Y1097902756D01*
X-108815000Y1097490279D01*
X-108815000Y1097069721D01*
X-108732953Y1096657244D01*
X-108572012Y1096268698D01*
X-108338363Y1095919017D01*
X-108040983Y1095621637D01*
X-107691302Y1095387988D01*
X-107302756Y1095227047D01*
X-106890279Y1095145000D01*
X-106469721Y1095145000D01*
X-106057244Y1095227047D01*
X-105668698Y1095387988D01*
X-105319017Y1095621637D01*
X-105021637Y1095919017D01*
X-104824999Y1096213307D01*
X-104825000Y1060483504D01*
X-104839364Y1060337008D01*
X-104872177Y1060228328D01*
X-104925478Y1060128083D01*
X-104997231Y1060040105D01*
X-105084708Y1059967737D01*
X-105184580Y1059913737D01*
X-105293027Y1059880167D01*
X-105437331Y1059865000D01*
X-143150956Y1059865000D01*
X-142595554Y1059975476D01*
X-142025021Y1060211799D01*
X-141511554Y1060554886D01*
X-141074886Y1060991554D01*
X-140731799Y1061505021D01*
X-140567233Y1061902320D01*
X-136025000Y1061902320D01*
X-136025000Y1061617680D01*
X-135969470Y1061338509D01*
X-135860543Y1061075536D01*
X-135702405Y1060838866D01*
X-135501134Y1060637595D01*
X-135264464Y1060479457D01*
X-135001491Y1060370530D01*
X-134722320Y1060315000D01*
X-134437680Y1060315000D01*
X-134158509Y1060370530D01*
X-133895536Y1060479457D01*
X-133658866Y1060637595D01*
X-133457595Y1060838866D01*
X-133299457Y1061075536D01*
X-133190530Y1061338509D01*
X-133135000Y1061617680D01*
X-133135000Y1061881033D01*
X-108315000Y1061881033D01*
X-108315000Y1061558967D01*
X-108252168Y1061243088D01*
X-108128918Y1060945537D01*
X-107949987Y1060677748D01*
X-107722252Y1060450013D01*
X-107454463Y1060271082D01*
X-107156912Y1060147832D01*
X-106841033Y1060085000D01*
X-106518967Y1060085000D01*
X-106203088Y1060147832D01*
X-105905537Y1060271082D01*
X-105637748Y1060450013D01*
X-105410013Y1060677748D01*
X-105231082Y1060945537D01*
X-105107832Y1061243088D01*
X-105045000Y1061558967D01*
X-105045000Y1061881033D01*
X-105107832Y1062196912D01*
X-105231082Y1062494463D01*
X-105410013Y1062762252D01*
X-105637748Y1062989987D01*
X-105905537Y1063168918D01*
X-106203088Y1063292168D01*
X-106518967Y1063355000D01*
X-106841033Y1063355000D01*
X-107156912Y1063292168D01*
X-107454463Y1063168918D01*
X-107722252Y1062989987D01*
X-107949987Y1062762252D01*
X-108128918Y1062494463D01*
X-108252168Y1062196912D01*
X-108315000Y1061881033D01*
X-133135000Y1061881033D01*
X-133135000Y1061902320D01*
X-133190530Y1062181491D01*
X-133299457Y1062444464D01*
X-133457595Y1062681134D01*
X-133658866Y1062882405D01*
X-133895536Y1063040543D01*
X-134158509Y1063149470D01*
X-134437680Y1063205000D01*
X-134722320Y1063205000D01*
X-135001491Y1063149470D01*
X-135264464Y1063040543D01*
X-135501134Y1062882405D01*
X-135702405Y1062681134D01*
X-135860543Y1062444464D01*
X-135969470Y1062181491D01*
X-136025000Y1061902320D01*
X-140567233Y1061902320D01*
X-140495476Y1062075554D01*
X-140375000Y1062681229D01*
X-140375000Y1063260157D01*
X-137900238Y1063260157D01*
X-137827444Y1063015168D01*
X-137570227Y1062893267D01*
X-137294171Y1062823890D01*
X-137009885Y1062809702D01*
X-136728294Y1062851248D01*
X-136460217Y1062946932D01*
X-136332556Y1063015168D01*
X-136259762Y1063260157D01*
X-137080000Y1064080395D01*
X-137900238Y1063260157D01*
X-140375000Y1063260157D01*
X-140375000Y1063298771D01*
X-140495476Y1063904446D01*
X-140613708Y1064189885D01*
X-138530298Y1064189885D01*
X-138488752Y1063908294D01*
X-138393068Y1063640217D01*
X-138324832Y1063512556D01*
X-138079843Y1063439762D01*
X-137259605Y1064260000D01*
X-136900395Y1064260000D01*
X-136080157Y1063439762D01*
X-135835168Y1063512556D01*
X-135713267Y1063769773D01*
X-135643890Y1064045829D01*
X-135629702Y1064330115D01*
X-135640355Y1064402320D01*
X-133525000Y1064402320D01*
X-133525000Y1064117680D01*
X-133469470Y1063838509D01*
X-133360543Y1063575536D01*
X-133202405Y1063338866D01*
X-133001134Y1063137595D01*
X-132764464Y1062979457D01*
X-132501491Y1062870530D01*
X-132222320Y1062815000D01*
X-131937680Y1062815000D01*
X-131658509Y1062870530D01*
X-131395536Y1062979457D01*
X-131158866Y1063137595D01*
X-130957595Y1063338866D01*
X-130799457Y1063575536D01*
X-130690530Y1063838509D01*
X-130635000Y1064117680D01*
X-130635000Y1064402320D01*
X-130690530Y1064681491D01*
X-130799457Y1064944464D01*
X-130910064Y1065110000D01*
X-125948072Y1065110000D01*
X-125948072Y1063410000D01*
X-125935812Y1063285518D01*
X-125899502Y1063165820D01*
X-125840537Y1063055506D01*
X-125761185Y1062958815D01*
X-125664494Y1062879463D01*
X-125554180Y1062820498D01*
X-125434482Y1062784188D01*
X-125310000Y1062771928D01*
X-123610000Y1062771928D01*
X-123485518Y1062784188D01*
X-123365820Y1062820498D01*
X-123255506Y1062879463D01*
X-123158815Y1062958815D01*
X-123079463Y1063055506D01*
X-123020498Y1063165820D01*
X-122984188Y1063285518D01*
X-122971928Y1063410000D01*
X-122971928Y1065110000D01*
X-122984188Y1065234482D01*
X-123020498Y1065354180D01*
X-123079463Y1065464494D01*
X-123158815Y1065561185D01*
X-123255506Y1065640537D01*
X-123365820Y1065699502D01*
X-123438380Y1065721513D01*
X-123306525Y1065853368D01*
X-123144010Y1066096589D01*
X-123032068Y1066366842D01*
X-122975000Y1066653740D01*
X-122975000Y1066946260D01*
X-123032068Y1067233158D01*
X-123144010Y1067503411D01*
X-123306525Y1067746632D01*
X-123513368Y1067953475D01*
X-123756589Y1068115990D01*
X-124026842Y1068227932D01*
X-124313740Y1068285000D01*
X-124606260Y1068285000D01*
X-124893158Y1068227932D01*
X-125163411Y1068115990D01*
X-125406632Y1067953475D01*
X-125613475Y1067746632D01*
X-125775990Y1067503411D01*
X-125887932Y1067233158D01*
X-125945000Y1066946260D01*
X-125945000Y1066653740D01*
X-125887932Y1066366842D01*
X-125775990Y1066096589D01*
X-125613475Y1065853368D01*
X-125481620Y1065721513D01*
X-125554180Y1065699502D01*
X-125664494Y1065640537D01*
X-125761185Y1065561185D01*
X-125840537Y1065464494D01*
X-125899502Y1065354180D01*
X-125935812Y1065234482D01*
X-125948072Y1065110000D01*
X-130910064Y1065110000D01*
X-130957595Y1065181134D01*
X-131158866Y1065382405D01*
X-131395536Y1065540543D01*
X-131658509Y1065649470D01*
X-131937680Y1065705000D01*
X-132222320Y1065705000D01*
X-132501491Y1065649470D01*
X-132764464Y1065540543D01*
X-133001134Y1065382405D01*
X-133202405Y1065181134D01*
X-133360543Y1064944464D01*
X-133469470Y1064681491D01*
X-133525000Y1064402320D01*
X-135640355Y1064402320D01*
X-135671248Y1064611706D01*
X-135766932Y1064879783D01*
X-135835168Y1065007444D01*
X-136080157Y1065080238D01*
X-136900395Y1064260000D01*
X-137259605Y1064260000D01*
X-138079843Y1065080238D01*
X-138324832Y1065007444D01*
X-138446733Y1064750227D01*
X-138516110Y1064474171D01*
X-138530298Y1064189885D01*
X-140613708Y1064189885D01*
X-140731799Y1064474979D01*
X-141074886Y1064988446D01*
X-141346283Y1065259843D01*
X-137900238Y1065259843D01*
X-137080000Y1064439605D01*
X-136259762Y1065259843D01*
X-136332556Y1065504832D01*
X-136589773Y1065626733D01*
X-136865829Y1065696110D01*
X-137150115Y1065710298D01*
X-137431706Y1065668752D01*
X-137699783Y1065573068D01*
X-137827444Y1065504832D01*
X-137900238Y1065259843D01*
X-141346283Y1065259843D01*
X-141511554Y1065425114D01*
X-142025021Y1065768201D01*
X-142595554Y1066004524D01*
X-143201229Y1066125000D01*
X-143818771Y1066125000D01*
X-144424446Y1066004524D01*
X-144994979Y1065768201D01*
X-145508446Y1065425114D01*
X-145945114Y1064988446D01*
X-146288201Y1064474979D01*
X-146524524Y1063904446D01*
X-146635000Y1063349044D01*
X-146635000Y1069006670D01*
X-142262722Y1069006670D01*
X-142172853Y1068760877D01*
X-142036759Y1068537340D01*
X-141859670Y1068344649D01*
X-141648392Y1068190208D01*
X-141411044Y1068079953D01*
X-141303329Y1068047284D01*
X-141097000Y1068170626D01*
X-141097000Y1069213000D01*
X-140843000Y1069213000D01*
X-140843000Y1068170626D01*
X-140636671Y1068047284D01*
X-140528956Y1068079953D01*
X-140291608Y1068190208D01*
X-140080330Y1068344649D01*
X-139903241Y1068537340D01*
X-139767147Y1068760877D01*
X-139677278Y1069006670D01*
X-139799799Y1069213000D01*
X-140843000Y1069213000D01*
X-141097000Y1069213000D01*
X-142140201Y1069213000D01*
X-142262722Y1069006670D01*
X-146635000Y1069006670D01*
X-146635000Y1071371486D01*
X-142305000Y1071371486D01*
X-142305000Y1071108514D01*
X-142253696Y1070850595D01*
X-142153061Y1070607641D01*
X-142006962Y1070388987D01*
X-141904522Y1070286547D01*
X-142036759Y1070142660D01*
X-142172853Y1069919123D01*
X-142262722Y1069673330D01*
X-142140201Y1069467000D01*
X-141097000Y1069467000D01*
X-141097000Y1069487000D01*
X-140843000Y1069487000D01*
X-140843000Y1069467000D01*
X-139799799Y1069467000D01*
X-139677278Y1069673330D01*
X-139767147Y1069919123D01*
X-139903241Y1070142660D01*
X-140035478Y1070286547D01*
X-139933038Y1070388987D01*
X-139786939Y1070607641D01*
X-139686304Y1070850595D01*
X-139635000Y1071108514D01*
X-139635000Y1071346939D01*
X-138830000Y1071346939D01*
X-138830000Y1071143061D01*
X-138790226Y1070943102D01*
X-138712205Y1070754744D01*
X-138598937Y1070585226D01*
X-138454774Y1070441063D01*
X-138285256Y1070327795D01*
X-138096898Y1070249774D01*
X-137896939Y1070210000D01*
X-137834801Y1070210000D01*
X-135379999Y1067755197D01*
X-135379999Y1067503712D01*
X-135423937Y1067459774D01*
X-135537205Y1067290256D01*
X-135615226Y1067101898D01*
X-135655000Y1066901939D01*
X-135655000Y1066698061D01*
X-135615226Y1066498102D01*
X-135537205Y1066309744D01*
X-135423937Y1066140226D01*
X-135279774Y1065996063D01*
X-135110256Y1065882795D01*
X-134921898Y1065804774D01*
X-134721939Y1065765000D01*
X-134518061Y1065765000D01*
X-134318102Y1065804774D01*
X-134129744Y1065882795D01*
X-133960226Y1065996063D01*
X-133816063Y1066140226D01*
X-133702795Y1066309744D01*
X-133624774Y1066498102D01*
X-133585000Y1066698061D01*
X-133585000Y1066901939D01*
X-133624774Y1067101898D01*
X-133702795Y1067290256D01*
X-133816063Y1067459774D01*
X-133860000Y1067503711D01*
X-133860000Y1068032678D01*
X-133856324Y1068070001D01*
X-133860000Y1068107324D01*
X-133860000Y1068107333D01*
X-133870997Y1068218986D01*
X-133914454Y1068362247D01*
X-133985026Y1068494277D01*
X-134056201Y1068581003D01*
X-134079999Y1068610001D01*
X-134108997Y1068633799D01*
X-135576684Y1070101486D01*
X-115000000Y1070101486D01*
X-115000000Y1069838514D01*
X-114948696Y1069580595D01*
X-114848061Y1069337641D01*
X-114701962Y1069118987D01*
X-114602975Y1069020000D01*
X-114701962Y1068921013D01*
X-114848061Y1068702359D01*
X-114948696Y1068459405D01*
X-115000000Y1068201486D01*
X-115000000Y1067938514D01*
X-114948696Y1067680595D01*
X-114848061Y1067437641D01*
X-114701962Y1067218987D01*
X-114516013Y1067033038D01*
X-114297359Y1066886939D01*
X-114054405Y1066786304D01*
X-113796486Y1066735000D01*
X-113533514Y1066735000D01*
X-113275595Y1066786304D01*
X-113032641Y1066886939D01*
X-112813987Y1067033038D01*
X-112628038Y1067218987D01*
X-112481939Y1067437641D01*
X-112381304Y1067680595D01*
X-112330000Y1067938514D01*
X-112330000Y1068201486D01*
X-112381304Y1068459405D01*
X-112481939Y1068702359D01*
X-112628038Y1068921013D01*
X-112727025Y1069020000D01*
X-112628038Y1069118987D01*
X-112481939Y1069337641D01*
X-112381304Y1069580595D01*
X-112330000Y1069838514D01*
X-112330000Y1070101486D01*
X-112381304Y1070359405D01*
X-112481939Y1070602359D01*
X-112628038Y1070821013D01*
X-112813987Y1071006962D01*
X-113032641Y1071153061D01*
X-113275595Y1071253696D01*
X-113533514Y1071305000D01*
X-113796486Y1071305000D01*
X-114054405Y1071253696D01*
X-114297359Y1071153061D01*
X-114516013Y1071006962D01*
X-114701962Y1070821013D01*
X-114848061Y1070602359D01*
X-114948696Y1070359405D01*
X-115000000Y1070101486D01*
X-135576684Y1070101486D01*
X-136760000Y1071284801D01*
X-136760000Y1071346939D01*
X-136799774Y1071546898D01*
X-136877795Y1071735256D01*
X-136991063Y1071904774D01*
X-137135226Y1072048937D01*
X-137304744Y1072162205D01*
X-137493102Y1072240226D01*
X-137693061Y1072280000D01*
X-137896939Y1072280000D01*
X-138096898Y1072240226D01*
X-138285256Y1072162205D01*
X-138454774Y1072048937D01*
X-138598937Y1071904774D01*
X-138712205Y1071735256D01*
X-138790226Y1071546898D01*
X-138830000Y1071346939D01*
X-139635000Y1071346939D01*
X-139635000Y1071371486D01*
X-139686304Y1071629405D01*
X-139786939Y1071872359D01*
X-139933038Y1072091013D01*
X-140118987Y1072276962D01*
X-140337641Y1072423061D01*
X-140580595Y1072523696D01*
X-140838514Y1072575000D01*
X-141101486Y1072575000D01*
X-141359405Y1072523696D01*
X-141602359Y1072423061D01*
X-141821013Y1072276962D01*
X-142006962Y1072091013D01*
X-142153061Y1071872359D01*
X-142253696Y1071629405D01*
X-142305000Y1071371486D01*
X-146635000Y1071371486D01*
X-146635000Y1075821486D01*
X-136585000Y1075821486D01*
X-136585000Y1075558514D01*
X-136533696Y1075300595D01*
X-136433061Y1075057641D01*
X-136286962Y1074838987D01*
X-136101013Y1074653038D01*
X-135882359Y1074506939D01*
X-135639405Y1074406304D01*
X-135381486Y1074355000D01*
X-135118514Y1074355000D01*
X-134860595Y1074406304D01*
X-134617641Y1074506939D01*
X-134398987Y1074653038D01*
X-134300000Y1074752025D01*
X-134201013Y1074653038D01*
X-133982359Y1074506939D01*
X-133739405Y1074406304D01*
X-133481486Y1074355000D01*
X-133218514Y1074355000D01*
X-132960595Y1074406304D01*
X-132717641Y1074506939D01*
X-132498987Y1074653038D01*
X-132313038Y1074838987D01*
X-132166939Y1075057641D01*
X-132066304Y1075300595D01*
X-132050610Y1075379493D01*
X-122451331Y1075379493D01*
X-122412239Y1075153596D01*
X-122329828Y1074939666D01*
X-122207264Y1074745924D01*
X-122049258Y1074579816D01*
X-121861882Y1074447725D01*
X-121652337Y1074354728D01*
X-121590810Y1074346036D01*
X-121412000Y1074471837D01*
X-121412000Y1075563000D01*
X-122291598Y1075563000D01*
X-122451331Y1075379493D01*
X-132050610Y1075379493D01*
X-132015000Y1075558514D01*
X-132015000Y1075821486D01*
X-132050609Y1076000507D01*
X-122451331Y1076000507D01*
X-122291598Y1075817000D01*
X-121412000Y1075817000D01*
X-121412000Y1075971979D01*
X-121175000Y1075971979D01*
X-121175000Y1075408022D01*
X-121158215Y1075237601D01*
X-121158000Y1075236892D01*
X-121158000Y1074471837D01*
X-120979190Y1074346036D01*
X-120917663Y1074354728D01*
X-120708118Y1074447725D01*
X-120649669Y1074488929D01*
X-120461060Y1074388115D01*
X-120242400Y1074321785D01*
X-120015000Y1074299388D01*
X-119787601Y1074321785D01*
X-119578902Y1074385093D01*
X-119514180Y1074350498D01*
X-119394482Y1074314188D01*
X-119270000Y1074301928D01*
X-118220000Y1074301928D01*
X-118095518Y1074314188D01*
X-117975820Y1074350498D01*
X-117865506Y1074409463D01*
X-117768815Y1074488815D01*
X-117689463Y1074585506D01*
X-117630498Y1074695820D01*
X-117594188Y1074815518D01*
X-117581928Y1074940000D01*
X-117581928Y1075971979D01*
X-114190000Y1075971979D01*
X-114190000Y1075408022D01*
X-114173215Y1075237601D01*
X-114106885Y1075018941D01*
X-113999171Y1074817422D01*
X-113854212Y1074640788D01*
X-113677579Y1074495829D01*
X-113476060Y1074388115D01*
X-113257400Y1074321785D01*
X-113030000Y1074299388D01*
X-112802601Y1074321785D01*
X-112583941Y1074388115D01*
X-112395001Y1074489106D01*
X-112206060Y1074388115D01*
X-111987400Y1074321785D01*
X-111760000Y1074299388D01*
X-111532601Y1074321785D01*
X-111323902Y1074385093D01*
X-111259180Y1074350498D01*
X-111139482Y1074314188D01*
X-111015000Y1074301928D01*
X-109965000Y1074301928D01*
X-109840518Y1074314188D01*
X-109720820Y1074350498D01*
X-109610506Y1074409463D01*
X-109513815Y1074488815D01*
X-109434463Y1074585506D01*
X-109375498Y1074695820D01*
X-109339188Y1074815518D01*
X-109326928Y1074940000D01*
X-109326928Y1076440000D01*
X-109339188Y1076564482D01*
X-109375498Y1076684180D01*
X-109434463Y1076794494D01*
X-109513815Y1076891185D01*
X-109610506Y1076970537D01*
X-109720820Y1077029502D01*
X-109840518Y1077065812D01*
X-109965000Y1077078072D01*
X-111015000Y1077078072D01*
X-111139482Y1077065812D01*
X-111259180Y1077029502D01*
X-111323902Y1076994907D01*
X-111532600Y1077058215D01*
X-111760000Y1077080612D01*
X-111987399Y1077058215D01*
X-112206059Y1076991885D01*
X-112395000Y1076890894D01*
X-112583940Y1076991885D01*
X-112802600Y1077058215D01*
X-113030000Y1077080612D01*
X-113257399Y1077058215D01*
X-113476059Y1076991885D01*
X-113677578Y1076884171D01*
X-113854211Y1076739212D01*
X-113999170Y1076562579D01*
X-114106885Y1076361060D01*
X-114173215Y1076142400D01*
X-114190000Y1075971979D01*
X-117581928Y1075971979D01*
X-117581928Y1076440000D01*
X-117594188Y1076564482D01*
X-117630498Y1076684180D01*
X-117689463Y1076794494D01*
X-117768815Y1076891185D01*
X-117865506Y1076970537D01*
X-117975820Y1077029502D01*
X-118095518Y1077065812D01*
X-118220000Y1077078072D01*
X-119270000Y1077078072D01*
X-119394482Y1077065812D01*
X-119514180Y1077029502D01*
X-119578902Y1076994907D01*
X-119787600Y1077058215D01*
X-120015000Y1077080612D01*
X-120242399Y1077058215D01*
X-120461059Y1076991885D01*
X-120649669Y1076891071D01*
X-120708118Y1076932275D01*
X-120917663Y1077025272D01*
X-120979190Y1077033964D01*
X-121158000Y1076908163D01*
X-121158000Y1076143109D01*
X-121158215Y1076142400D01*
X-121175000Y1075971979D01*
X-121412000Y1075971979D01*
X-121412000Y1076908163D01*
X-121590810Y1077033964D01*
X-121652337Y1077025272D01*
X-121861882Y1076932275D01*
X-122049258Y1076800184D01*
X-122207264Y1076634076D01*
X-122329828Y1076440334D01*
X-122412239Y1076226404D01*
X-122451331Y1076000507D01*
X-132050609Y1076000507D01*
X-132066304Y1076079405D01*
X-132166939Y1076322359D01*
X-132313038Y1076541013D01*
X-132498987Y1076726962D01*
X-132717641Y1076873061D01*
X-132960595Y1076973696D01*
X-133218514Y1077025000D01*
X-133481486Y1077025000D01*
X-133739405Y1076973696D01*
X-133982359Y1076873061D01*
X-134201013Y1076726962D01*
X-134300000Y1076627975D01*
X-134398987Y1076726962D01*
X-134617641Y1076873061D01*
X-134860595Y1076973696D01*
X-135118514Y1077025000D01*
X-135381486Y1077025000D01*
X-135639405Y1076973696D01*
X-135882359Y1076873061D01*
X-136101013Y1076726962D01*
X-136286962Y1076541013D01*
X-136433061Y1076322359D01*
X-136533696Y1076079405D01*
X-136585000Y1075821486D01*
X-146635000Y1075821486D01*
X-146635000Y1080459493D01*
X-142771331Y1080459493D01*
X-142732239Y1080233596D01*
X-142649828Y1080019666D01*
X-142527264Y1079825924D01*
X-142369258Y1079659816D01*
X-142181882Y1079527725D01*
X-141972337Y1079434728D01*
X-141910810Y1079426036D01*
X-141732000Y1079551837D01*
X-141732000Y1080643000D01*
X-142611598Y1080643000D01*
X-142771331Y1080459493D01*
X-146635000Y1080459493D01*
X-146635000Y1081080507D01*
X-142771331Y1081080507D01*
X-142611598Y1080897000D01*
X-141732000Y1080897000D01*
X-141732000Y1081051979D01*
X-141495000Y1081051979D01*
X-141495000Y1080488022D01*
X-141478215Y1080317601D01*
X-141478000Y1080316892D01*
X-141478000Y1079551837D01*
X-141299190Y1079426036D01*
X-141237663Y1079434728D01*
X-141028118Y1079527725D01*
X-140969669Y1079568929D01*
X-140781060Y1079468115D01*
X-140562400Y1079401785D01*
X-140335000Y1079379388D01*
X-140107601Y1079401785D01*
X-139898902Y1079465093D01*
X-139834180Y1079430498D01*
X-139714482Y1079394188D01*
X-139590000Y1079381928D01*
X-138540000Y1079381928D01*
X-138415518Y1079394188D01*
X-138295820Y1079430498D01*
X-138185506Y1079489463D01*
X-138088815Y1079568815D01*
X-138009463Y1079665506D01*
X-137950498Y1079775820D01*
X-137914188Y1079895518D01*
X-137901928Y1080020000D01*
X-137901928Y1081520000D01*
X-137914188Y1081644482D01*
X-137921928Y1081670000D01*
X-134888072Y1081670000D01*
X-134888072Y1079870000D01*
X-134875812Y1079745518D01*
X-134839502Y1079625820D01*
X-134780537Y1079515506D01*
X-134701185Y1079418815D01*
X-134604494Y1079339463D01*
X-134494180Y1079280498D01*
X-134374482Y1079244188D01*
X-134250000Y1079231928D01*
X-132450000Y1079231928D01*
X-132325518Y1079244188D01*
X-132205820Y1079280498D01*
X-132095506Y1079339463D01*
X-131998815Y1079418815D01*
X-131919463Y1079515506D01*
X-131860498Y1079625820D01*
X-131854944Y1079644127D01*
X-131788505Y1079577688D01*
X-131537095Y1079409701D01*
X-131257743Y1079293989D01*
X-130961184Y1079235000D01*
X-130658816Y1079235000D01*
X-130362257Y1079293989D01*
X-130082905Y1079409701D01*
X-129831495Y1079577688D01*
X-129617688Y1079791495D01*
X-129449701Y1080042905D01*
X-129333989Y1080322257D01*
X-129275000Y1080618816D01*
X-129275000Y1080896486D01*
X-127065000Y1080896486D01*
X-127065000Y1080633514D01*
X-127013696Y1080375595D01*
X-126913061Y1080132641D01*
X-126766962Y1079913987D01*
X-126667975Y1079815000D01*
X-126766962Y1079716013D01*
X-126913061Y1079497359D01*
X-127013696Y1079254405D01*
X-127065000Y1078996486D01*
X-127065000Y1078733514D01*
X-127013696Y1078475595D01*
X-126913061Y1078232641D01*
X-126766962Y1078013987D01*
X-126581013Y1077828038D01*
X-126362359Y1077681939D01*
X-126119405Y1077581304D01*
X-125861486Y1077530000D01*
X-125598514Y1077530000D01*
X-125340595Y1077581304D01*
X-125097641Y1077681939D01*
X-124878987Y1077828038D01*
X-124693038Y1078013987D01*
X-124546939Y1078232641D01*
X-124446304Y1078475595D01*
X-124395000Y1078733514D01*
X-124395000Y1078996486D01*
X-124446304Y1079254405D01*
X-124546939Y1079497359D01*
X-124693038Y1079716013D01*
X-124792025Y1079815000D01*
X-124693038Y1079913987D01*
X-124546939Y1080132641D01*
X-124446304Y1080375595D01*
X-124395000Y1080633514D01*
X-124395000Y1080896486D01*
X-124446304Y1081154405D01*
X-124546939Y1081397359D01*
X-124693038Y1081616013D01*
X-124878987Y1081801962D01*
X-125097641Y1081948061D01*
X-125340595Y1082048696D01*
X-125598514Y1082100000D01*
X-125861486Y1082100000D01*
X-126119405Y1082048696D01*
X-126362359Y1081948061D01*
X-126581013Y1081801962D01*
X-126766962Y1081616013D01*
X-126913061Y1081397359D01*
X-127013696Y1081154405D01*
X-127065000Y1080896486D01*
X-129275000Y1080896486D01*
X-129275000Y1080921184D01*
X-129333989Y1081217743D01*
X-129449701Y1081497095D01*
X-129617688Y1081748505D01*
X-129831495Y1081962312D01*
X-130082905Y1082130299D01*
X-130362257Y1082246011D01*
X-130658816Y1082305000D01*
X-130961184Y1082305000D01*
X-131257743Y1082246011D01*
X-131537095Y1082130299D01*
X-131788505Y1081962312D01*
X-131854944Y1081895873D01*
X-131860498Y1081914180D01*
X-131919463Y1082024494D01*
X-131998815Y1082121185D01*
X-132095506Y1082200537D01*
X-132205820Y1082259502D01*
X-132325518Y1082295812D01*
X-132450000Y1082308072D01*
X-134250000Y1082308072D01*
X-134374482Y1082295812D01*
X-134494180Y1082259502D01*
X-134604494Y1082200537D01*
X-134701185Y1082121185D01*
X-134780537Y1082024494D01*
X-134839502Y1081914180D01*
X-134875812Y1081794482D01*
X-134888072Y1081670000D01*
X-137921928Y1081670000D01*
X-137950498Y1081764180D01*
X-138009463Y1081874494D01*
X-138088815Y1081971185D01*
X-138185506Y1082050537D01*
X-138295820Y1082109502D01*
X-138415518Y1082145812D01*
X-138540000Y1082158072D01*
X-139590000Y1082158072D01*
X-139714482Y1082145812D01*
X-139834180Y1082109502D01*
X-139898902Y1082074907D01*
X-140107600Y1082138215D01*
X-140335000Y1082160612D01*
X-140562399Y1082138215D01*
X-140781059Y1082071885D01*
X-140969669Y1081971071D01*
X-141028118Y1082012275D01*
X-141237663Y1082105272D01*
X-141299190Y1082113964D01*
X-141478000Y1081988163D01*
X-141478000Y1081223109D01*
X-141478215Y1081222400D01*
X-141495000Y1081051979D01*
X-141732000Y1081051979D01*
X-141732000Y1081988163D01*
X-141910810Y1082113964D01*
X-141972337Y1082105272D01*
X-142181882Y1082012275D01*
X-142369258Y1081880184D01*
X-142527264Y1081714076D01*
X-142649828Y1081520334D01*
X-142732239Y1081306404D01*
X-142771331Y1081080507D01*
X-146635000Y1081080507D01*
X-146635000Y1092331486D01*
X-141035000Y1092331486D01*
X-141035000Y1092068514D01*
X-140983696Y1091810595D01*
X-140883061Y1091567641D01*
X-140736962Y1091348987D01*
X-140551013Y1091163038D01*
X-140332359Y1091016939D01*
X-140122470Y1090930000D01*
X-140332359Y1090843061D01*
X-140551013Y1090696962D01*
X-140736962Y1090511013D01*
X-140883061Y1090292359D01*
X-140983696Y1090049405D01*
X-141035000Y1089791486D01*
X-141035000Y1089528514D01*
X-140983696Y1089270595D01*
X-140883061Y1089027641D01*
X-140736962Y1088808987D01*
X-140551013Y1088623038D01*
X-140332359Y1088476939D01*
X-140089405Y1088376304D01*
X-139831486Y1088325000D01*
X-139568514Y1088325000D01*
X-139310595Y1088376304D01*
X-139067641Y1088476939D01*
X-138848987Y1088623038D01*
X-138750000Y1088722025D01*
X-138651013Y1088623038D01*
X-138432359Y1088476939D01*
X-138189405Y1088376304D01*
X-137931486Y1088325000D01*
X-137668514Y1088325000D01*
X-137410595Y1088376304D01*
X-137167641Y1088476939D01*
X-136948987Y1088623038D01*
X-136763038Y1088808987D01*
X-136616939Y1089027641D01*
X-136516304Y1089270595D01*
X-136465000Y1089528514D01*
X-136465000Y1089791486D01*
X-136516304Y1090049405D01*
X-136616939Y1090292359D01*
X-136763038Y1090511013D01*
X-136948987Y1090696962D01*
X-137167641Y1090843061D01*
X-137377530Y1090930000D01*
X-137167641Y1091016939D01*
X-136948987Y1091163038D01*
X-136763038Y1091348987D01*
X-136616939Y1091567641D01*
X-136516304Y1091810595D01*
X-136465000Y1092068514D01*
X-136465000Y1092331486D01*
X-136516304Y1092589405D01*
X-136616939Y1092832359D01*
X-136763038Y1093051013D01*
X-136948987Y1093236962D01*
X-137167641Y1093383061D01*
X-137410595Y1093483696D01*
X-137668514Y1093535000D01*
X-137931486Y1093535000D01*
X-138189405Y1093483696D01*
X-138432359Y1093383061D01*
X-138651013Y1093236962D01*
X-138750000Y1093137975D01*
X-138848987Y1093236962D01*
X-139067641Y1093383061D01*
X-139310595Y1093483696D01*
X-139568514Y1093535000D01*
X-139831486Y1093535000D01*
X-140089405Y1093483696D01*
X-140332359Y1093383061D01*
X-140551013Y1093236962D01*
X-140736962Y1093051013D01*
X-140883061Y1092832359D01*
X-140983696Y1092589405D01*
X-141035000Y1092331486D01*
X-146635000Y1092331486D01*
X-146635000Y1095650956D01*
X-146524524Y1095095554D01*
X-146288201Y1094525021D01*
X-145945114Y1094011554D01*
X-145508446Y1093574886D01*
X-144994979Y1093231799D01*
X-144424446Y1092995476D01*
X-143818771Y1092875000D01*
X-143201229Y1092875000D01*
X-142595554Y1092995476D01*
X-142025021Y1093231799D01*
X-141511554Y1093574886D01*
X-141146440Y1093940000D01*
X-136058072Y1093940000D01*
X-136045812Y1093815518D01*
X-136009502Y1093695820D01*
X-135950537Y1093585506D01*
X-135871185Y1093488815D01*
X-135774494Y1093409463D01*
X-135664180Y1093350498D01*
X-135544482Y1093314188D01*
X-135536039Y1093313357D01*
X-135734637Y1093114759D01*
X-135891680Y1092879727D01*
X-135999853Y1092618574D01*
X-136055000Y1092341335D01*
X-136055000Y1092058665D01*
X-135999853Y1091781426D01*
X-135891680Y1091520273D01*
X-135734637Y1091285241D01*
X-135534759Y1091085363D01*
X-135302241Y1090930000D01*
X-135534759Y1090774637D01*
X-135734637Y1090574759D01*
X-135891680Y1090339727D01*
X-135999853Y1090078574D01*
X-136055000Y1089801335D01*
X-136055000Y1089518665D01*
X-135999853Y1089241426D01*
X-135891680Y1088980273D01*
X-135734637Y1088745241D01*
X-135534759Y1088545363D01*
X-135302241Y1088390000D01*
X-135534759Y1088234637D01*
X-135734637Y1088034759D01*
X-135891680Y1087799727D01*
X-135999853Y1087538574D01*
X-136055000Y1087261335D01*
X-136055000Y1086978665D01*
X-135999853Y1086701426D01*
X-135891680Y1086440273D01*
X-135734637Y1086205241D01*
X-135534759Y1086005363D01*
X-135299727Y1085848320D01*
X-135038574Y1085740147D01*
X-134761335Y1085685000D01*
X-134478665Y1085685000D01*
X-134201426Y1085740147D01*
X-133940273Y1085848320D01*
X-133705241Y1086005363D01*
X-133505363Y1086205241D01*
X-133348320Y1086440273D01*
X-133240147Y1086701426D01*
X-133185000Y1086978665D01*
X-133185000Y1087261335D01*
X-133240147Y1087538574D01*
X-133348320Y1087799727D01*
X-133505363Y1088034759D01*
X-133705241Y1088234637D01*
X-133937759Y1088390000D01*
X-133705241Y1088545363D01*
X-133505363Y1088745241D01*
X-133348320Y1088980273D01*
X-133240147Y1089241426D01*
X-133185000Y1089518665D01*
X-133185000Y1089801335D01*
X-133240147Y1090078574D01*
X-133348320Y1090339727D01*
X-133505363Y1090574759D01*
X-133705241Y1090774637D01*
X-133937759Y1090930000D01*
X-133705241Y1091085363D01*
X-133505363Y1091285241D01*
X-133348320Y1091520273D01*
X-133240147Y1091781426D01*
X-133185000Y1092058665D01*
X-133185000Y1092341335D01*
X-133240147Y1092618574D01*
X-133348320Y1092879727D01*
X-133505363Y1093114759D01*
X-133703961Y1093313357D01*
X-133695518Y1093314188D01*
X-133575820Y1093350498D01*
X-133465506Y1093409463D01*
X-133368815Y1093488815D01*
X-133289463Y1093585506D01*
X-133230498Y1093695820D01*
X-133194188Y1093815518D01*
X-133181928Y1093940000D01*
X-133185000Y1094454250D01*
X-133343750Y1094613000D01*
X-134493000Y1094613000D01*
X-134493000Y1094593000D01*
X-134747000Y1094593000D01*
X-134747000Y1094613000D01*
X-135896250Y1094613000D01*
X-136055000Y1094454250D01*
X-136058072Y1093940000D01*
X-141146440Y1093940000D01*
X-141074886Y1094011554D01*
X-140731799Y1094525021D01*
X-140495476Y1095095554D01*
X-140407071Y1095540000D01*
X-136058072Y1095540000D01*
X-136055000Y1095025750D01*
X-135896250Y1094867000D01*
X-134747000Y1094867000D01*
X-134747000Y1096016250D01*
X-134493000Y1096016250D01*
X-134493000Y1094867000D01*
X-133343750Y1094867000D01*
X-133329415Y1094881335D01*
X-128435000Y1094881335D01*
X-128435000Y1094598665D01*
X-128379853Y1094321426D01*
X-128271680Y1094060273D01*
X-128114637Y1093825241D01*
X-127914759Y1093625363D01*
X-127682241Y1093470000D01*
X-127914759Y1093314637D01*
X-128114637Y1093114759D01*
X-128271680Y1092879727D01*
X-128379853Y1092618574D01*
X-128435000Y1092341335D01*
X-128435000Y1092058665D01*
X-128379853Y1091781426D01*
X-128271680Y1091520273D01*
X-128114637Y1091285241D01*
X-127914759Y1091085363D01*
X-127682241Y1090930000D01*
X-127914759Y1090774637D01*
X-128114637Y1090574759D01*
X-128271680Y1090339727D01*
X-128379853Y1090078574D01*
X-128435000Y1089801335D01*
X-128435000Y1089518665D01*
X-128379853Y1089241426D01*
X-128271680Y1088980273D01*
X-128114637Y1088745241D01*
X-127914759Y1088545363D01*
X-127682241Y1088390000D01*
X-127914759Y1088234637D01*
X-128114637Y1088034759D01*
X-128271680Y1087799727D01*
X-128379853Y1087538574D01*
X-128435000Y1087261335D01*
X-128435000Y1086978665D01*
X-128379853Y1086701426D01*
X-128271680Y1086440273D01*
X-128114637Y1086205241D01*
X-127914759Y1086005363D01*
X-127679727Y1085848320D01*
X-127418574Y1085740147D01*
X-127141335Y1085685000D01*
X-126858665Y1085685000D01*
X-126581426Y1085740147D01*
X-126320273Y1085848320D01*
X-126085241Y1086005363D01*
X-125885363Y1086205241D01*
X-125728320Y1086440273D01*
X-125620147Y1086701426D01*
X-125565000Y1086978665D01*
X-125565000Y1087261335D01*
X-125620147Y1087538574D01*
X-125728320Y1087799727D01*
X-125885363Y1088034759D01*
X-126085241Y1088234637D01*
X-126317759Y1088390000D01*
X-126085241Y1088545363D01*
X-125885363Y1088745241D01*
X-125728320Y1088980273D01*
X-125620147Y1089241426D01*
X-125572306Y1089481937D01*
X-125495000Y1089481937D01*
X-125495000Y1089278059D01*
X-125455226Y1089078100D01*
X-125377205Y1088889742D01*
X-125263937Y1088720224D01*
X-125119774Y1088576061D01*
X-124950256Y1088462793D01*
X-124761898Y1088384772D01*
X-124561939Y1088344998D01*
X-124499801Y1088344998D01*
X-121638796Y1085483991D01*
X-121615002Y1085454998D01*
X-121586009Y1085431204D01*
X-121586005Y1085431200D01*
X-121515316Y1085373188D01*
X-121499277Y1085360025D01*
X-121367248Y1085289453D01*
X-121223987Y1085245996D01*
X-121112334Y1085234999D01*
X-121112325Y1085234999D01*
X-121075002Y1085231323D01*
X-121037679Y1085234999D01*
X-118322798Y1085234999D01*
X-115632401Y1082544601D01*
X-115786013Y1082441962D01*
X-115885000Y1082342975D01*
X-115983987Y1082441962D01*
X-116202641Y1082588061D01*
X-116445595Y1082688696D01*
X-116703514Y1082740000D01*
X-116966486Y1082740000D01*
X-117224405Y1082688696D01*
X-117467359Y1082588061D01*
X-117686013Y1082441962D01*
X-117871962Y1082256013D01*
X-118018061Y1082037359D01*
X-118118696Y1081794405D01*
X-118170000Y1081536486D01*
X-118170000Y1081273514D01*
X-118118696Y1081015595D01*
X-118018061Y1080772641D01*
X-117871962Y1080553987D01*
X-117686013Y1080368038D01*
X-117467359Y1080221939D01*
X-117224405Y1080121304D01*
X-116966486Y1080070000D01*
X-116703514Y1080070000D01*
X-116445595Y1080121304D01*
X-116202641Y1080221939D01*
X-115983987Y1080368038D01*
X-115885000Y1080467025D01*
X-115786013Y1080368038D01*
X-115567359Y1080221939D01*
X-115324405Y1080121304D01*
X-115066486Y1080070000D01*
X-114804802Y1080070000D01*
X-114974801Y1079900000D01*
X-115036939Y1079900000D01*
X-115236898Y1079860226D01*
X-115425256Y1079782205D01*
X-115594774Y1079668937D01*
X-115738937Y1079524774D01*
X-115852205Y1079355256D01*
X-115930226Y1079166898D01*
X-115970000Y1078966939D01*
X-115970000Y1078763061D01*
X-115930226Y1078563102D01*
X-115852205Y1078374744D01*
X-115738937Y1078205226D01*
X-115594774Y1078061063D01*
X-115425256Y1077947795D01*
X-115236898Y1077869774D01*
X-115036939Y1077830000D01*
X-114833061Y1077830000D01*
X-114633102Y1077869774D01*
X-114444744Y1077947795D01*
X-114275226Y1078061063D01*
X-114131063Y1078205226D01*
X-114017795Y1078374744D01*
X-113939774Y1078563102D01*
X-113900000Y1078763061D01*
X-113900000Y1078825199D01*
X-113398995Y1079326203D01*
X-113369998Y1079350000D01*
X-113275025Y1079465725D01*
X-113204453Y1079597754D01*
X-113160996Y1079741015D01*
X-113149999Y1079852668D01*
X-113149999Y1079852677D01*
X-113146323Y1079890000D01*
X-113149999Y1079927323D01*
X-113149999Y1080901486D01*
X-111825000Y1080901486D01*
X-111825000Y1080638514D01*
X-111773696Y1080380595D01*
X-111673061Y1080137641D01*
X-111526962Y1079918987D01*
X-111341013Y1079733038D01*
X-111122359Y1079586939D01*
X-110879405Y1079486304D01*
X-110621486Y1079435000D01*
X-110358514Y1079435000D01*
X-110100595Y1079486304D01*
X-109857641Y1079586939D01*
X-109638987Y1079733038D01*
X-109453038Y1079918987D01*
X-109306939Y1080137641D01*
X-109206304Y1080380595D01*
X-109155000Y1080638514D01*
X-109155000Y1080901486D01*
X-109206304Y1081159405D01*
X-109306939Y1081402359D01*
X-109453038Y1081621013D01*
X-109555478Y1081723453D01*
X-109423241Y1081867340D01*
X-109287147Y1082090877D01*
X-109197278Y1082336670D01*
X-109319799Y1082543000D01*
X-110363000Y1082543000D01*
X-110363000Y1082523000D01*
X-110617000Y1082523000D01*
X-110617000Y1082543000D01*
X-111660201Y1082543000D01*
X-111782722Y1082336670D01*
X-111692853Y1082090877D01*
X-111556759Y1081867340D01*
X-111424522Y1081723453D01*
X-111526962Y1081621013D01*
X-111673061Y1081402359D01*
X-111773696Y1081159405D01*
X-111825000Y1080901486D01*
X-113149999Y1080901486D01*
X-113149999Y1081859679D01*
X-113146323Y1081897002D01*
X-113149999Y1081934325D01*
X-113149999Y1081934334D01*
X-113160996Y1082045987D01*
X-113204453Y1082189248D01*
X-113275025Y1082321277D01*
X-113369998Y1082437002D01*
X-113398996Y1082460800D01*
X-113941526Y1083003330D01*
X-111782722Y1083003330D01*
X-111660201Y1082797000D01*
X-110617000Y1082797000D01*
X-110617000Y1083839374D01*
X-110363000Y1083839374D01*
X-110363000Y1082797000D01*
X-109319799Y1082797000D01*
X-109197278Y1083003330D01*
X-109287147Y1083249123D01*
X-109423241Y1083472660D01*
X-109600330Y1083665351D01*
X-109811608Y1083819792D01*
X-110048956Y1083930047D01*
X-110156671Y1083962716D01*
X-110363000Y1083839374D01*
X-110617000Y1083839374D01*
X-110823329Y1083962716D01*
X-110931044Y1083930047D01*
X-111168392Y1083819792D01*
X-111379670Y1083665351D01*
X-111556759Y1083472660D01*
X-111692853Y1083249123D01*
X-111782722Y1083003330D01*
X-113941526Y1083003330D01*
X-116804792Y1085866596D01*
X-116773486Y1085883329D01*
X-116701903Y1086127298D01*
X-117515000Y1086940395D01*
X-117529143Y1086926253D01*
X-117708748Y1087105858D01*
X-117694605Y1087120000D01*
X-117335395Y1087120000D01*
X-116522298Y1086306903D01*
X-116278329Y1086378486D01*
X-116157429Y1086633996D01*
X-116088700Y1086908184D01*
X-116074783Y1087190512D01*
X-116116213Y1087470130D01*
X-116211397Y1087736292D01*
X-116278329Y1087861514D01*
X-116522298Y1087933097D01*
X-117335395Y1087120000D01*
X-117694605Y1087120000D01*
X-118507702Y1087933097D01*
X-118576928Y1087912785D01*
X-118576928Y1087920000D01*
X-118589188Y1088044482D01*
X-118609882Y1088112702D01*
X-118328097Y1088112702D01*
X-117515000Y1087299605D01*
X-116701903Y1088112702D01*
X-116773486Y1088356671D01*
X-117028996Y1088477571D01*
X-117303184Y1088546300D01*
X-117585512Y1088560217D01*
X-117865130Y1088518787D01*
X-118131292Y1088423603D01*
X-118256514Y1088356671D01*
X-118328097Y1088112702D01*
X-118609882Y1088112702D01*
X-118625498Y1088164180D01*
X-118684463Y1088274494D01*
X-118763815Y1088371185D01*
X-118860506Y1088450537D01*
X-118970820Y1088509502D01*
X-119090518Y1088545812D01*
X-119215000Y1088558072D01*
X-120815000Y1088558072D01*
X-120939482Y1088545812D01*
X-121059180Y1088509502D01*
X-121169494Y1088450537D01*
X-121266185Y1088371185D01*
X-121345537Y1088274494D01*
X-121404502Y1088164180D01*
X-121440812Y1088044482D01*
X-121453072Y1087920000D01*
X-121453072Y1087447872D01*
X-123425000Y1089419799D01*
X-123425000Y1089481937D01*
X-123464774Y1089681896D01*
X-123542795Y1089870254D01*
X-123656063Y1090039772D01*
X-123800226Y1090183935D01*
X-123969744Y1090297203D01*
X-124158102Y1090375224D01*
X-124358061Y1090414998D01*
X-124561939Y1090414998D01*
X-124761898Y1090375224D01*
X-124950256Y1090297203D01*
X-125119774Y1090183935D01*
X-125263937Y1090039772D01*
X-125377205Y1089870254D01*
X-125455226Y1089681896D01*
X-125495000Y1089481937D01*
X-125572306Y1089481937D01*
X-125565000Y1089518665D01*
X-125565000Y1089801335D01*
X-125620147Y1090078574D01*
X-125728320Y1090339727D01*
X-125885363Y1090574759D01*
X-126085241Y1090774637D01*
X-126317759Y1090930000D01*
X-126085241Y1091085363D01*
X-125885363Y1091285241D01*
X-125728320Y1091520273D01*
X-125620147Y1091781426D01*
X-125565000Y1092058665D01*
X-125565000Y1092341335D01*
X-125620147Y1092618574D01*
X-125728320Y1092879727D01*
X-125885363Y1093114759D01*
X-126085241Y1093314637D01*
X-126317759Y1093470000D01*
X-126085241Y1093625363D01*
X-125885363Y1093825241D01*
X-125728320Y1094060273D01*
X-125620147Y1094321426D01*
X-125565000Y1094598665D01*
X-125565000Y1094881335D01*
X-125620147Y1095158574D01*
X-125728320Y1095419727D01*
X-125808683Y1095540000D01*
X-123358072Y1095540000D01*
X-123358072Y1093940000D01*
X-123345812Y1093815518D01*
X-123309502Y1093695820D01*
X-123250537Y1093585506D01*
X-123171185Y1093488815D01*
X-123074494Y1093409463D01*
X-122964180Y1093350498D01*
X-122844482Y1093314188D01*
X-122720000Y1093301928D01*
X-121120000Y1093301928D01*
X-120995518Y1093314188D01*
X-120875820Y1093350498D01*
X-120765506Y1093409463D01*
X-120668815Y1093488815D01*
X-120589463Y1093585506D01*
X-120530498Y1093695820D01*
X-120514883Y1093747298D01*
X-120233097Y1093747298D01*
X-120161514Y1093503329D01*
X-119906004Y1093382429D01*
X-119631816Y1093313700D01*
X-119349488Y1093299783D01*
X-119069870Y1093341213D01*
X-118803708Y1093436397D01*
X-118678486Y1093503329D01*
X-118606903Y1093747298D01*
X-119420000Y1094560395D01*
X-120233097Y1093747298D01*
X-120514883Y1093747298D01*
X-120494188Y1093815518D01*
X-120481928Y1093940000D01*
X-120481928Y1093947215D01*
X-120412702Y1093926903D01*
X-119599605Y1094740000D01*
X-119240395Y1094740000D01*
X-118427298Y1093926903D01*
X-118183329Y1093998486D01*
X-118062429Y1094253996D01*
X-117993700Y1094528184D01*
X-117979783Y1094810512D01*
X-118021213Y1095090130D01*
X-118116397Y1095356292D01*
X-118183329Y1095481514D01*
X-118427298Y1095553097D01*
X-119240395Y1094740000D01*
X-119599605Y1094740000D01*
X-120412702Y1095553097D01*
X-120481928Y1095532785D01*
X-120481928Y1095540000D01*
X-120494188Y1095664482D01*
X-120514882Y1095732702D01*
X-120233097Y1095732702D01*
X-119420000Y1094919605D01*
X-118606903Y1095732702D01*
X-118678486Y1095976671D01*
X-118933996Y1096097571D01*
X-119208184Y1096166300D01*
X-119490512Y1096180217D01*
X-119770130Y1096138787D01*
X-120036292Y1096043603D01*
X-120161514Y1095976671D01*
X-120233097Y1095732702D01*
X-120514882Y1095732702D01*
X-120530498Y1095784180D01*
X-120589463Y1095894494D01*
X-120668815Y1095991185D01*
X-120765506Y1096070537D01*
X-120875820Y1096129502D01*
X-120995518Y1096165812D01*
X-121120000Y1096178072D01*
X-122720000Y1096178072D01*
X-122844482Y1096165812D01*
X-122964180Y1096129502D01*
X-123074494Y1096070537D01*
X-123171185Y1095991185D01*
X-123250537Y1095894494D01*
X-123309502Y1095784180D01*
X-123345812Y1095664482D01*
X-123358072Y1095540000D01*
X-125808683Y1095540000D01*
X-125885363Y1095654759D01*
X-126085241Y1095854637D01*
X-126320273Y1096011680D01*
X-126581426Y1096119853D01*
X-126858665Y1096175000D01*
X-127141335Y1096175000D01*
X-127418574Y1096119853D01*
X-127679727Y1096011680D01*
X-127914759Y1095854637D01*
X-128114637Y1095654759D01*
X-128271680Y1095419727D01*
X-128379853Y1095158574D01*
X-128435000Y1094881335D01*
X-133329415Y1094881335D01*
X-133185000Y1095025750D01*
X-133181928Y1095540000D01*
X-133194188Y1095664482D01*
X-133230498Y1095784180D01*
X-133289463Y1095894494D01*
X-133368815Y1095991185D01*
X-133465506Y1096070537D01*
X-133575820Y1096129502D01*
X-133695518Y1096165812D01*
X-133820000Y1096178072D01*
X-134334250Y1096175000D01*
X-134493000Y1096016250D01*
X-134747000Y1096016250D01*
X-134905750Y1096175000D01*
X-135420000Y1096178072D01*
X-135544482Y1096165812D01*
X-135664180Y1096129502D01*
X-135774494Y1096070537D01*
X-135871185Y1095991185D01*
X-135950537Y1095894494D01*
X-136009502Y1095784180D01*
X-136045812Y1095664482D01*
X-136058072Y1095540000D01*
X-140407071Y1095540000D01*
X-140375000Y1095701229D01*
X-140375000Y1096318771D01*
X-140495476Y1096924446D01*
X-140731799Y1097494979D01*
X-141074886Y1098008446D01*
X-141196440Y1098130000D01*
X-115153072Y1098130000D01*
X-115153072Y1096430000D01*
X-115140812Y1096305518D01*
X-115104502Y1096185820D01*
X-115045537Y1096075506D01*
X-114966185Y1095978815D01*
X-114869494Y1095899463D01*
X-114759180Y1095840498D01*
X-114639482Y1095804188D01*
X-114515000Y1095791928D01*
X-112815000Y1095791928D01*
X-112690518Y1095804188D01*
X-112570820Y1095840498D01*
X-112460506Y1095899463D01*
X-112363815Y1095978815D01*
X-112284463Y1096075506D01*
X-112225498Y1096185820D01*
X-112201034Y1096266466D01*
X-112125269Y1096182412D01*
X-111891920Y1096008359D01*
X-111629099Y1095883175D01*
X-111481890Y1095838524D01*
X-111252000Y1095959845D01*
X-111252000Y1097153000D01*
X-110998000Y1097153000D01*
X-110998000Y1095959845D01*
X-110768110Y1095838524D01*
X-110620901Y1095883175D01*
X-110358080Y1096008359D01*
X-110124731Y1096182412D01*
X-109929822Y1096398645D01*
X-109780843Y1096648748D01*
X-109683519Y1096923109D01*
X-109804186Y1097153000D01*
X-110998000Y1097153000D01*
X-111252000Y1097153000D01*
X-111272000Y1097153000D01*
X-111272000Y1097407000D01*
X-111252000Y1097407000D01*
X-111252000Y1098600155D01*
X-110998000Y1098600155D01*
X-110998000Y1097407000D01*
X-109804186Y1097407000D01*
X-109683519Y1097636891D01*
X-109780843Y1097911252D01*
X-109929822Y1098161355D01*
X-110124731Y1098377588D01*
X-110358080Y1098551641D01*
X-110620901Y1098676825D01*
X-110768110Y1098721476D01*
X-110998000Y1098600155D01*
X-111252000Y1098600155D01*
X-111481890Y1098721476D01*
X-111629099Y1098676825D01*
X-111891920Y1098551641D01*
X-112125269Y1098377588D01*
X-112201034Y1098293534D01*
X-112225498Y1098374180D01*
X-112284463Y1098484494D01*
X-112363815Y1098581185D01*
X-112460506Y1098660537D01*
X-112570820Y1098719502D01*
X-112690518Y1098755812D01*
X-112815000Y1098768072D01*
X-114515000Y1098768072D01*
X-114639482Y1098755812D01*
X-114759180Y1098719502D01*
X-114869494Y1098660537D01*
X-114966185Y1098581185D01*
X-115045537Y1098484494D01*
X-115104502Y1098374180D01*
X-115140812Y1098254482D01*
X-115153072Y1098130000D01*
X-141196440Y1098130000D01*
X-141511554Y1098445114D01*
X-142025021Y1098788201D01*
X-142595554Y1099024524D01*
X-143150956Y1099135000D01*
X-107746694Y1099135000D01*
X-108040983Y1098938363D01*
%TA.AperFunction,Conductor*%
D28*
G36*
X-108040983Y1098938363D02*
G01*
X-108338363Y1098640983D01*
X-108572012Y1098291302D01*
X-108732953Y1097902756D01*
X-108815000Y1097490279D01*
X-108815000Y1097069721D01*
X-108732953Y1096657244D01*
X-108572012Y1096268698D01*
X-108338363Y1095919017D01*
X-108040983Y1095621637D01*
X-107691302Y1095387988D01*
X-107302756Y1095227047D01*
X-106890279Y1095145000D01*
X-106469721Y1095145000D01*
X-106057244Y1095227047D01*
X-105668698Y1095387988D01*
X-105319017Y1095621637D01*
X-105021637Y1095919017D01*
X-104824999Y1096213307D01*
X-104825000Y1060483504D01*
X-104839364Y1060337008D01*
X-104872177Y1060228328D01*
X-104925478Y1060128083D01*
X-104997231Y1060040105D01*
X-105084708Y1059967737D01*
X-105184580Y1059913737D01*
X-105293027Y1059880167D01*
X-105437331Y1059865000D01*
X-143150956Y1059865000D01*
X-142595554Y1059975476D01*
X-142025021Y1060211799D01*
X-141511554Y1060554886D01*
X-141074886Y1060991554D01*
X-140731799Y1061505021D01*
X-140567233Y1061902320D01*
X-136025000Y1061902320D01*
X-136025000Y1061617680D01*
X-135969470Y1061338509D01*
X-135860543Y1061075536D01*
X-135702405Y1060838866D01*
X-135501134Y1060637595D01*
X-135264464Y1060479457D01*
X-135001491Y1060370530D01*
X-134722320Y1060315000D01*
X-134437680Y1060315000D01*
X-134158509Y1060370530D01*
X-133895536Y1060479457D01*
X-133658866Y1060637595D01*
X-133457595Y1060838866D01*
X-133299457Y1061075536D01*
X-133190530Y1061338509D01*
X-133135000Y1061617680D01*
X-133135000Y1061881033D01*
X-108315000Y1061881033D01*
X-108315000Y1061558967D01*
X-108252168Y1061243088D01*
X-108128918Y1060945537D01*
X-107949987Y1060677748D01*
X-107722252Y1060450013D01*
X-107454463Y1060271082D01*
X-107156912Y1060147832D01*
X-106841033Y1060085000D01*
X-106518967Y1060085000D01*
X-106203088Y1060147832D01*
X-105905537Y1060271082D01*
X-105637748Y1060450013D01*
X-105410013Y1060677748D01*
X-105231082Y1060945537D01*
X-105107832Y1061243088D01*
X-105045000Y1061558967D01*
X-105045000Y1061881033D01*
X-105107832Y1062196912D01*
X-105231082Y1062494463D01*
X-105410013Y1062762252D01*
X-105637748Y1062989987D01*
X-105905537Y1063168918D01*
X-106203088Y1063292168D01*
X-106518967Y1063355000D01*
X-106841033Y1063355000D01*
X-107156912Y1063292168D01*
X-107454463Y1063168918D01*
X-107722252Y1062989987D01*
X-107949987Y1062762252D01*
X-108128918Y1062494463D01*
X-108252168Y1062196912D01*
X-108315000Y1061881033D01*
X-133135000Y1061881033D01*
X-133135000Y1061902320D01*
X-133190530Y1062181491D01*
X-133299457Y1062444464D01*
X-133457595Y1062681134D01*
X-133658866Y1062882405D01*
X-133895536Y1063040543D01*
X-134158509Y1063149470D01*
X-134437680Y1063205000D01*
X-134722320Y1063205000D01*
X-135001491Y1063149470D01*
X-135264464Y1063040543D01*
X-135501134Y1062882405D01*
X-135702405Y1062681134D01*
X-135860543Y1062444464D01*
X-135969470Y1062181491D01*
X-136025000Y1061902320D01*
X-140567233Y1061902320D01*
X-140495476Y1062075554D01*
X-140375000Y1062681229D01*
X-140375000Y1063260157D01*
X-137900238Y1063260157D01*
X-137827444Y1063015168D01*
X-137570227Y1062893267D01*
X-137294171Y1062823890D01*
X-137009885Y1062809702D01*
X-136728294Y1062851248D01*
X-136460217Y1062946932D01*
X-136332556Y1063015168D01*
X-136259762Y1063260157D01*
X-137080000Y1064080395D01*
X-137900238Y1063260157D01*
X-140375000Y1063260157D01*
X-140375000Y1063298771D01*
X-140495476Y1063904446D01*
X-140613708Y1064189885D01*
X-138530298Y1064189885D01*
X-138488752Y1063908294D01*
X-138393068Y1063640217D01*
X-138324832Y1063512556D01*
X-138079843Y1063439762D01*
X-137259605Y1064260000D01*
X-136900395Y1064260000D01*
X-136080157Y1063439762D01*
X-135835168Y1063512556D01*
X-135713267Y1063769773D01*
X-135643890Y1064045829D01*
X-135629702Y1064330115D01*
X-135640355Y1064402320D01*
X-133525000Y1064402320D01*
X-133525000Y1064117680D01*
X-133469470Y1063838509D01*
X-133360543Y1063575536D01*
X-133202405Y1063338866D01*
X-133001134Y1063137595D01*
X-132764464Y1062979457D01*
X-132501491Y1062870530D01*
X-132222320Y1062815000D01*
X-131937680Y1062815000D01*
X-131658509Y1062870530D01*
X-131395536Y1062979457D01*
X-131158866Y1063137595D01*
X-130957595Y1063338866D01*
X-130799457Y1063575536D01*
X-130690530Y1063838509D01*
X-130635000Y1064117680D01*
X-130635000Y1064402320D01*
X-130690530Y1064681491D01*
X-130799457Y1064944464D01*
X-130910064Y1065110000D01*
X-125948072Y1065110000D01*
X-125948072Y1063410000D01*
X-125935812Y1063285518D01*
X-125899502Y1063165820D01*
X-125840537Y1063055506D01*
X-125761185Y1062958815D01*
X-125664494Y1062879463D01*
X-125554180Y1062820498D01*
X-125434482Y1062784188D01*
X-125310000Y1062771928D01*
X-123610000Y1062771928D01*
X-123485518Y1062784188D01*
X-123365820Y1062820498D01*
X-123255506Y1062879463D01*
X-123158815Y1062958815D01*
X-123079463Y1063055506D01*
X-123020498Y1063165820D01*
X-122984188Y1063285518D01*
X-122971928Y1063410000D01*
X-122971928Y1065110000D01*
X-122984188Y1065234482D01*
X-123020498Y1065354180D01*
X-123079463Y1065464494D01*
X-123158815Y1065561185D01*
X-123255506Y1065640537D01*
X-123365820Y1065699502D01*
X-123438380Y1065721513D01*
X-123306525Y1065853368D01*
X-123144010Y1066096589D01*
X-123032068Y1066366842D01*
X-122975000Y1066653740D01*
X-122975000Y1066946260D01*
X-123032068Y1067233158D01*
X-123144010Y1067503411D01*
X-123306525Y1067746632D01*
X-123513368Y1067953475D01*
X-123756589Y1068115990D01*
X-124026842Y1068227932D01*
X-124313740Y1068285000D01*
X-124606260Y1068285000D01*
X-124893158Y1068227932D01*
X-125163411Y1068115990D01*
X-125406632Y1067953475D01*
X-125613475Y1067746632D01*
X-125775990Y1067503411D01*
X-125887932Y1067233158D01*
X-125945000Y1066946260D01*
X-125945000Y1066653740D01*
X-125887932Y1066366842D01*
X-125775990Y1066096589D01*
X-125613475Y1065853368D01*
X-125481620Y1065721513D01*
X-125554180Y1065699502D01*
X-125664494Y1065640537D01*
X-125761185Y1065561185D01*
X-125840537Y1065464494D01*
X-125899502Y1065354180D01*
X-125935812Y1065234482D01*
X-125948072Y1065110000D01*
X-130910064Y1065110000D01*
X-130957595Y1065181134D01*
X-131158866Y1065382405D01*
X-131395536Y1065540543D01*
X-131658509Y1065649470D01*
X-131937680Y1065705000D01*
X-132222320Y1065705000D01*
X-132501491Y1065649470D01*
X-132764464Y1065540543D01*
X-133001134Y1065382405D01*
X-133202405Y1065181134D01*
X-133360543Y1064944464D01*
X-133469470Y1064681491D01*
X-133525000Y1064402320D01*
X-135640355Y1064402320D01*
X-135671248Y1064611706D01*
X-135766932Y1064879783D01*
X-135835168Y1065007444D01*
X-136080157Y1065080238D01*
X-136900395Y1064260000D01*
X-137259605Y1064260000D01*
X-138079843Y1065080238D01*
X-138324832Y1065007444D01*
X-138446733Y1064750227D01*
X-138516110Y1064474171D01*
X-138530298Y1064189885D01*
X-140613708Y1064189885D01*
X-140731799Y1064474979D01*
X-141074886Y1064988446D01*
X-141346283Y1065259843D01*
X-137900238Y1065259843D01*
X-137080000Y1064439605D01*
X-136259762Y1065259843D01*
X-136332556Y1065504832D01*
X-136589773Y1065626733D01*
X-136865829Y1065696110D01*
X-137150115Y1065710298D01*
X-137431706Y1065668752D01*
X-137699783Y1065573068D01*
X-137827444Y1065504832D01*
X-137900238Y1065259843D01*
X-141346283Y1065259843D01*
X-141511554Y1065425114D01*
X-142025021Y1065768201D01*
X-142595554Y1066004524D01*
X-143201229Y1066125000D01*
X-143818771Y1066125000D01*
X-144424446Y1066004524D01*
X-144994979Y1065768201D01*
X-145508446Y1065425114D01*
X-145945114Y1064988446D01*
X-146288201Y1064474979D01*
X-146524524Y1063904446D01*
X-146635000Y1063349044D01*
X-146635000Y1069006670D01*
X-142262722Y1069006670D01*
X-142172853Y1068760877D01*
X-142036759Y1068537340D01*
X-141859670Y1068344649D01*
X-141648392Y1068190208D01*
X-141411044Y1068079953D01*
X-141303329Y1068047284D01*
X-141097000Y1068170626D01*
X-141097000Y1069213000D01*
X-140843000Y1069213000D01*
X-140843000Y1068170626D01*
X-140636671Y1068047284D01*
X-140528956Y1068079953D01*
X-140291608Y1068190208D01*
X-140080330Y1068344649D01*
X-139903241Y1068537340D01*
X-139767147Y1068760877D01*
X-139677278Y1069006670D01*
X-139799799Y1069213000D01*
X-140843000Y1069213000D01*
X-141097000Y1069213000D01*
X-142140201Y1069213000D01*
X-142262722Y1069006670D01*
X-146635000Y1069006670D01*
X-146635000Y1071371486D01*
X-142305000Y1071371486D01*
X-142305000Y1071108514D01*
X-142253696Y1070850595D01*
X-142153061Y1070607641D01*
X-142006962Y1070388987D01*
X-141904522Y1070286547D01*
X-142036759Y1070142660D01*
X-142172853Y1069919123D01*
X-142262722Y1069673330D01*
X-142140201Y1069467000D01*
X-141097000Y1069467000D01*
X-141097000Y1069487000D01*
X-140843000Y1069487000D01*
X-140843000Y1069467000D01*
X-139799799Y1069467000D01*
X-139677278Y1069673330D01*
X-139767147Y1069919123D01*
X-139903241Y1070142660D01*
X-140035478Y1070286547D01*
X-139933038Y1070388987D01*
X-139786939Y1070607641D01*
X-139686304Y1070850595D01*
X-139635000Y1071108514D01*
X-139635000Y1071346939D01*
X-138830000Y1071346939D01*
X-138830000Y1071143061D01*
X-138790226Y1070943102D01*
X-138712205Y1070754744D01*
X-138598937Y1070585226D01*
X-138454774Y1070441063D01*
X-138285256Y1070327795D01*
X-138096898Y1070249774D01*
X-137896939Y1070210000D01*
X-137834801Y1070210000D01*
X-135379999Y1067755197D01*
X-135379999Y1067503712D01*
X-135423937Y1067459774D01*
X-135537205Y1067290256D01*
X-135615226Y1067101898D01*
X-135655000Y1066901939D01*
X-135655000Y1066698061D01*
X-135615226Y1066498102D01*
X-135537205Y1066309744D01*
X-135423937Y1066140226D01*
X-135279774Y1065996063D01*
X-135110256Y1065882795D01*
X-134921898Y1065804774D01*
X-134721939Y1065765000D01*
X-134518061Y1065765000D01*
X-134318102Y1065804774D01*
X-134129744Y1065882795D01*
X-133960226Y1065996063D01*
X-133816063Y1066140226D01*
X-133702795Y1066309744D01*
X-133624774Y1066498102D01*
X-133585000Y1066698061D01*
X-133585000Y1066901939D01*
X-133624774Y1067101898D01*
X-133702795Y1067290256D01*
X-133816063Y1067459774D01*
X-133860000Y1067503711D01*
X-133860000Y1068032678D01*
X-133856324Y1068070001D01*
X-133860000Y1068107324D01*
X-133860000Y1068107333D01*
X-133870997Y1068218986D01*
X-133914454Y1068362247D01*
X-133985026Y1068494277D01*
X-134056201Y1068581003D01*
X-134079999Y1068610001D01*
X-134108997Y1068633799D01*
X-135576684Y1070101486D01*
X-115000000Y1070101486D01*
X-115000000Y1069838514D01*
X-114948696Y1069580595D01*
X-114848061Y1069337641D01*
X-114701962Y1069118987D01*
X-114602975Y1069020000D01*
X-114701962Y1068921013D01*
X-114848061Y1068702359D01*
X-114948696Y1068459405D01*
X-115000000Y1068201486D01*
X-115000000Y1067938514D01*
X-114948696Y1067680595D01*
X-114848061Y1067437641D01*
X-114701962Y1067218987D01*
X-114516013Y1067033038D01*
X-114297359Y1066886939D01*
X-114054405Y1066786304D01*
X-113796486Y1066735000D01*
X-113533514Y1066735000D01*
X-113275595Y1066786304D01*
X-113032641Y1066886939D01*
X-112813987Y1067033038D01*
X-112628038Y1067218987D01*
X-112481939Y1067437641D01*
X-112381304Y1067680595D01*
X-112330000Y1067938514D01*
X-112330000Y1068201486D01*
X-112381304Y1068459405D01*
X-112481939Y1068702359D01*
X-112628038Y1068921013D01*
X-112727025Y1069020000D01*
X-112628038Y1069118987D01*
X-112481939Y1069337641D01*
X-112381304Y1069580595D01*
X-112330000Y1069838514D01*
X-112330000Y1070101486D01*
X-112381304Y1070359405D01*
X-112481939Y1070602359D01*
X-112628038Y1070821013D01*
X-112813987Y1071006962D01*
X-113032641Y1071153061D01*
X-113275595Y1071253696D01*
X-113533514Y1071305000D01*
X-113796486Y1071305000D01*
X-114054405Y1071253696D01*
X-114297359Y1071153061D01*
X-114516013Y1071006962D01*
X-114701962Y1070821013D01*
X-114848061Y1070602359D01*
X-114948696Y1070359405D01*
X-115000000Y1070101486D01*
X-135576684Y1070101486D01*
X-136760000Y1071284801D01*
X-136760000Y1071346939D01*
X-136799774Y1071546898D01*
X-136877795Y1071735256D01*
X-136991063Y1071904774D01*
X-137135226Y1072048937D01*
X-137304744Y1072162205D01*
X-137493102Y1072240226D01*
X-137693061Y1072280000D01*
X-137896939Y1072280000D01*
X-138096898Y1072240226D01*
X-138285256Y1072162205D01*
X-138454774Y1072048937D01*
X-138598937Y1071904774D01*
X-138712205Y1071735256D01*
X-138790226Y1071546898D01*
X-138830000Y1071346939D01*
X-139635000Y1071346939D01*
X-139635000Y1071371486D01*
X-139686304Y1071629405D01*
X-139786939Y1071872359D01*
X-139933038Y1072091013D01*
X-140118987Y1072276962D01*
X-140337641Y1072423061D01*
X-140580595Y1072523696D01*
X-140838514Y1072575000D01*
X-141101486Y1072575000D01*
X-141359405Y1072523696D01*
X-141602359Y1072423061D01*
X-141821013Y1072276962D01*
X-142006962Y1072091013D01*
X-142153061Y1071872359D01*
X-142253696Y1071629405D01*
X-142305000Y1071371486D01*
X-146635000Y1071371486D01*
X-146635000Y1075821486D01*
X-136585000Y1075821486D01*
X-136585000Y1075558514D01*
X-136533696Y1075300595D01*
X-136433061Y1075057641D01*
X-136286962Y1074838987D01*
X-136101013Y1074653038D01*
X-135882359Y1074506939D01*
X-135639405Y1074406304D01*
X-135381486Y1074355000D01*
X-135118514Y1074355000D01*
X-134860595Y1074406304D01*
X-134617641Y1074506939D01*
X-134398987Y1074653038D01*
X-134300000Y1074752025D01*
X-134201013Y1074653038D01*
X-133982359Y1074506939D01*
X-133739405Y1074406304D01*
X-133481486Y1074355000D01*
X-133218514Y1074355000D01*
X-132960595Y1074406304D01*
X-132717641Y1074506939D01*
X-132498987Y1074653038D01*
X-132313038Y1074838987D01*
X-132166939Y1075057641D01*
X-132066304Y1075300595D01*
X-132050610Y1075379493D01*
X-122451331Y1075379493D01*
X-122412239Y1075153596D01*
X-122329828Y1074939666D01*
X-122207264Y1074745924D01*
X-122049258Y1074579816D01*
X-121861882Y1074447725D01*
X-121652337Y1074354728D01*
X-121590810Y1074346036D01*
X-121412000Y1074471837D01*
X-121412000Y1075563000D01*
X-122291598Y1075563000D01*
X-122451331Y1075379493D01*
X-132050610Y1075379493D01*
X-132015000Y1075558514D01*
X-132015000Y1075821486D01*
X-132050609Y1076000507D01*
X-122451331Y1076000507D01*
X-122291598Y1075817000D01*
X-121412000Y1075817000D01*
X-121412000Y1075971979D01*
X-121175000Y1075971979D01*
X-121175000Y1075408022D01*
X-121158215Y1075237601D01*
X-121158000Y1075236892D01*
X-121158000Y1074471837D01*
X-120979190Y1074346036D01*
X-120917663Y1074354728D01*
X-120708118Y1074447725D01*
X-120649669Y1074488929D01*
X-120461060Y1074388115D01*
X-120242400Y1074321785D01*
X-120015000Y1074299388D01*
X-119787601Y1074321785D01*
X-119578902Y1074385093D01*
X-119514180Y1074350498D01*
X-119394482Y1074314188D01*
X-119270000Y1074301928D01*
X-118220000Y1074301928D01*
X-118095518Y1074314188D01*
X-117975820Y1074350498D01*
X-117865506Y1074409463D01*
X-117768815Y1074488815D01*
X-117689463Y1074585506D01*
X-117630498Y1074695820D01*
X-117594188Y1074815518D01*
X-117581928Y1074940000D01*
X-117581928Y1075971979D01*
X-114190000Y1075971979D01*
X-114190000Y1075408022D01*
X-114173215Y1075237601D01*
X-114106885Y1075018941D01*
X-113999171Y1074817422D01*
X-113854212Y1074640788D01*
X-113677579Y1074495829D01*
X-113476060Y1074388115D01*
X-113257400Y1074321785D01*
X-113030000Y1074299388D01*
X-112802601Y1074321785D01*
X-112583941Y1074388115D01*
X-112395001Y1074489106D01*
X-112206060Y1074388115D01*
X-111987400Y1074321785D01*
X-111760000Y1074299388D01*
X-111532601Y1074321785D01*
X-111323902Y1074385093D01*
X-111259180Y1074350498D01*
X-111139482Y1074314188D01*
X-111015000Y1074301928D01*
X-109965000Y1074301928D01*
X-109840518Y1074314188D01*
X-109720820Y1074350498D01*
X-109610506Y1074409463D01*
X-109513815Y1074488815D01*
X-109434463Y1074585506D01*
X-109375498Y1074695820D01*
X-109339188Y1074815518D01*
X-109326928Y1074940000D01*
X-109326928Y1076440000D01*
X-109339188Y1076564482D01*
X-109375498Y1076684180D01*
X-109434463Y1076794494D01*
X-109513815Y1076891185D01*
X-109610506Y1076970537D01*
X-109720820Y1077029502D01*
X-109840518Y1077065812D01*
X-109965000Y1077078072D01*
X-111015000Y1077078072D01*
X-111139482Y1077065812D01*
X-111259180Y1077029502D01*
X-111323902Y1076994907D01*
X-111532600Y1077058215D01*
X-111760000Y1077080612D01*
X-111987399Y1077058215D01*
X-112206059Y1076991885D01*
X-112395000Y1076890894D01*
X-112583940Y1076991885D01*
X-112802600Y1077058215D01*
X-113030000Y1077080612D01*
X-113257399Y1077058215D01*
X-113476059Y1076991885D01*
X-113677578Y1076884171D01*
X-113854211Y1076739212D01*
X-113999170Y1076562579D01*
X-114106885Y1076361060D01*
X-114173215Y1076142400D01*
X-114190000Y1075971979D01*
X-117581928Y1075971979D01*
X-117581928Y1076440000D01*
X-117594188Y1076564482D01*
X-117630498Y1076684180D01*
X-117689463Y1076794494D01*
X-117768815Y1076891185D01*
X-117865506Y1076970537D01*
X-117975820Y1077029502D01*
X-118095518Y1077065812D01*
X-118220000Y1077078072D01*
X-119270000Y1077078072D01*
X-119394482Y1077065812D01*
X-119514180Y1077029502D01*
X-119578902Y1076994907D01*
X-119787600Y1077058215D01*
X-120015000Y1077080612D01*
X-120242399Y1077058215D01*
X-120461059Y1076991885D01*
X-120649669Y1076891071D01*
X-120708118Y1076932275D01*
X-120917663Y1077025272D01*
X-120979190Y1077033964D01*
X-121158000Y1076908163D01*
X-121158000Y1076143109D01*
X-121158215Y1076142400D01*
X-121175000Y1075971979D01*
X-121412000Y1075971979D01*
X-121412000Y1076908163D01*
X-121590810Y1077033964D01*
X-121652337Y1077025272D01*
X-121861882Y1076932275D01*
X-122049258Y1076800184D01*
X-122207264Y1076634076D01*
X-122329828Y1076440334D01*
X-122412239Y1076226404D01*
X-122451331Y1076000507D01*
X-132050609Y1076000507D01*
X-132066304Y1076079405D01*
X-132166939Y1076322359D01*
X-132313038Y1076541013D01*
X-132498987Y1076726962D01*
X-132717641Y1076873061D01*
X-132960595Y1076973696D01*
X-133218514Y1077025000D01*
X-133481486Y1077025000D01*
X-133739405Y1076973696D01*
X-133982359Y1076873061D01*
X-134201013Y1076726962D01*
X-134300000Y1076627975D01*
X-134398987Y1076726962D01*
X-134617641Y1076873061D01*
X-134860595Y1076973696D01*
X-135118514Y1077025000D01*
X-135381486Y1077025000D01*
X-135639405Y1076973696D01*
X-135882359Y1076873061D01*
X-136101013Y1076726962D01*
X-136286962Y1076541013D01*
X-136433061Y1076322359D01*
X-136533696Y1076079405D01*
X-136585000Y1075821486D01*
X-146635000Y1075821486D01*
X-146635000Y1080459493D01*
X-142771331Y1080459493D01*
X-142732239Y1080233596D01*
X-142649828Y1080019666D01*
X-142527264Y1079825924D01*
X-142369258Y1079659816D01*
X-142181882Y1079527725D01*
X-141972337Y1079434728D01*
X-141910810Y1079426036D01*
X-141732000Y1079551837D01*
X-141732000Y1080643000D01*
X-142611598Y1080643000D01*
X-142771331Y1080459493D01*
X-146635000Y1080459493D01*
X-146635000Y1081080507D01*
X-142771331Y1081080507D01*
X-142611598Y1080897000D01*
X-141732000Y1080897000D01*
X-141732000Y1081051979D01*
X-141495000Y1081051979D01*
X-141495000Y1080488022D01*
X-141478215Y1080317601D01*
X-141478000Y1080316892D01*
X-141478000Y1079551837D01*
X-141299190Y1079426036D01*
X-141237663Y1079434728D01*
X-141028118Y1079527725D01*
X-140969669Y1079568929D01*
X-140781060Y1079468115D01*
X-140562400Y1079401785D01*
X-140335000Y1079379388D01*
X-140107601Y1079401785D01*
X-139898902Y1079465093D01*
X-139834180Y1079430498D01*
X-139714482Y1079394188D01*
X-139590000Y1079381928D01*
X-138540000Y1079381928D01*
X-138415518Y1079394188D01*
X-138295820Y1079430498D01*
X-138185506Y1079489463D01*
X-138088815Y1079568815D01*
X-138009463Y1079665506D01*
X-137950498Y1079775820D01*
X-137914188Y1079895518D01*
X-137901928Y1080020000D01*
X-137901928Y1081520000D01*
X-137914188Y1081644482D01*
X-137921928Y1081670000D01*
X-134888072Y1081670000D01*
X-134888072Y1079870000D01*
X-134875812Y1079745518D01*
X-134839502Y1079625820D01*
X-134780537Y1079515506D01*
X-134701185Y1079418815D01*
X-134604494Y1079339463D01*
X-134494180Y1079280498D01*
X-134374482Y1079244188D01*
X-134250000Y1079231928D01*
X-132450000Y1079231928D01*
X-132325518Y1079244188D01*
X-132205820Y1079280498D01*
X-132095506Y1079339463D01*
X-131998815Y1079418815D01*
X-131919463Y1079515506D01*
X-131860498Y1079625820D01*
X-131854944Y1079644127D01*
X-131788505Y1079577688D01*
X-131537095Y1079409701D01*
X-131257743Y1079293989D01*
X-130961184Y1079235000D01*
X-130658816Y1079235000D01*
X-130362257Y1079293989D01*
X-130082905Y1079409701D01*
X-129831495Y1079577688D01*
X-129617688Y1079791495D01*
X-129449701Y1080042905D01*
X-129333989Y1080322257D01*
X-129275000Y1080618816D01*
X-129275000Y1080896486D01*
X-127065000Y1080896486D01*
X-127065000Y1080633514D01*
X-127013696Y1080375595D01*
X-126913061Y1080132641D01*
X-126766962Y1079913987D01*
X-126667975Y1079815000D01*
X-126766962Y1079716013D01*
X-126913061Y1079497359D01*
X-127013696Y1079254405D01*
X-127065000Y1078996486D01*
X-127065000Y1078733514D01*
X-127013696Y1078475595D01*
X-126913061Y1078232641D01*
X-126766962Y1078013987D01*
X-126581013Y1077828038D01*
X-126362359Y1077681939D01*
X-126119405Y1077581304D01*
X-125861486Y1077530000D01*
X-125598514Y1077530000D01*
X-125340595Y1077581304D01*
X-125097641Y1077681939D01*
X-124878987Y1077828038D01*
X-124693038Y1078013987D01*
X-124546939Y1078232641D01*
X-124446304Y1078475595D01*
X-124395000Y1078733514D01*
X-124395000Y1078996486D01*
X-124446304Y1079254405D01*
X-124546939Y1079497359D01*
X-124693038Y1079716013D01*
X-124792025Y1079815000D01*
X-124693038Y1079913987D01*
X-124546939Y1080132641D01*
X-124446304Y1080375595D01*
X-124395000Y1080633514D01*
X-124395000Y1080896486D01*
X-124446304Y1081154405D01*
X-124546939Y1081397359D01*
X-124693038Y1081616013D01*
X-124878987Y1081801962D01*
X-125097641Y1081948061D01*
X-125340595Y1082048696D01*
X-125598514Y1082100000D01*
X-125861486Y1082100000D01*
X-126119405Y1082048696D01*
X-126362359Y1081948061D01*
X-126581013Y1081801962D01*
X-126766962Y1081616013D01*
X-126913061Y1081397359D01*
X-127013696Y1081154405D01*
X-127065000Y1080896486D01*
X-129275000Y1080896486D01*
X-129275000Y1080921184D01*
X-129333989Y1081217743D01*
X-129449701Y1081497095D01*
X-129617688Y1081748505D01*
X-129831495Y1081962312D01*
X-130082905Y1082130299D01*
X-130362257Y1082246011D01*
X-130658816Y1082305000D01*
X-130961184Y1082305000D01*
X-131257743Y1082246011D01*
X-131537095Y1082130299D01*
X-131788505Y1081962312D01*
X-131854944Y1081895873D01*
X-131860498Y1081914180D01*
X-131919463Y1082024494D01*
X-131998815Y1082121185D01*
X-132095506Y1082200537D01*
X-132205820Y1082259502D01*
X-132325518Y1082295812D01*
X-132450000Y1082308072D01*
X-134250000Y1082308072D01*
X-134374482Y1082295812D01*
X-134494180Y1082259502D01*
X-134604494Y1082200537D01*
X-134701185Y1082121185D01*
X-134780537Y1082024494D01*
X-134839502Y1081914180D01*
X-134875812Y1081794482D01*
X-134888072Y1081670000D01*
X-137921928Y1081670000D01*
X-137950498Y1081764180D01*
X-138009463Y1081874494D01*
X-138088815Y1081971185D01*
X-138185506Y1082050537D01*
X-138295820Y1082109502D01*
X-138415518Y1082145812D01*
X-138540000Y1082158072D01*
X-139590000Y1082158072D01*
X-139714482Y1082145812D01*
X-139834180Y1082109502D01*
X-139898902Y1082074907D01*
X-140107600Y1082138215D01*
X-140335000Y1082160612D01*
X-140562399Y1082138215D01*
X-140781059Y1082071885D01*
X-140969669Y1081971071D01*
X-141028118Y1082012275D01*
X-141237663Y1082105272D01*
X-141299190Y1082113964D01*
X-141478000Y1081988163D01*
X-141478000Y1081223109D01*
X-141478215Y1081222400D01*
X-141495000Y1081051979D01*
X-141732000Y1081051979D01*
X-141732000Y1081988163D01*
X-141910810Y1082113964D01*
X-141972337Y1082105272D01*
X-142181882Y1082012275D01*
X-142369258Y1081880184D01*
X-142527264Y1081714076D01*
X-142649828Y1081520334D01*
X-142732239Y1081306404D01*
X-142771331Y1081080507D01*
X-146635000Y1081080507D01*
X-146635000Y1092331486D01*
X-141035000Y1092331486D01*
X-141035000Y1092068514D01*
X-140983696Y1091810595D01*
X-140883061Y1091567641D01*
X-140736962Y1091348987D01*
X-140551013Y1091163038D01*
X-140332359Y1091016939D01*
X-140122470Y1090930000D01*
X-140332359Y1090843061D01*
X-140551013Y1090696962D01*
X-140736962Y1090511013D01*
X-140883061Y1090292359D01*
X-140983696Y1090049405D01*
X-141035000Y1089791486D01*
X-141035000Y1089528514D01*
X-140983696Y1089270595D01*
X-140883061Y1089027641D01*
X-140736962Y1088808987D01*
X-140551013Y1088623038D01*
X-140332359Y1088476939D01*
X-140089405Y1088376304D01*
X-139831486Y1088325000D01*
X-139568514Y1088325000D01*
X-139310595Y1088376304D01*
X-139067641Y1088476939D01*
X-138848987Y1088623038D01*
X-138750000Y1088722025D01*
X-138651013Y1088623038D01*
X-138432359Y1088476939D01*
X-138189405Y1088376304D01*
X-137931486Y1088325000D01*
X-137668514Y1088325000D01*
X-137410595Y1088376304D01*
X-137167641Y1088476939D01*
X-136948987Y1088623038D01*
X-136763038Y1088808987D01*
X-136616939Y1089027641D01*
X-136516304Y1089270595D01*
X-136465000Y1089528514D01*
X-136465000Y1089791486D01*
X-136516304Y1090049405D01*
X-136616939Y1090292359D01*
X-136763038Y1090511013D01*
X-136948987Y1090696962D01*
X-137167641Y1090843061D01*
X-137377530Y1090930000D01*
X-137167641Y1091016939D01*
X-136948987Y1091163038D01*
X-136763038Y1091348987D01*
X-136616939Y1091567641D01*
X-136516304Y1091810595D01*
X-136465000Y1092068514D01*
X-136465000Y1092331486D01*
X-136516304Y1092589405D01*
X-136616939Y1092832359D01*
X-136763038Y1093051013D01*
X-136948987Y1093236962D01*
X-137167641Y1093383061D01*
X-137410595Y1093483696D01*
X-137668514Y1093535000D01*
X-137931486Y1093535000D01*
X-138189405Y1093483696D01*
X-138432359Y1093383061D01*
X-138651013Y1093236962D01*
X-138750000Y1093137975D01*
X-138848987Y1093236962D01*
X-139067641Y1093383061D01*
X-139310595Y1093483696D01*
X-139568514Y1093535000D01*
X-139831486Y1093535000D01*
X-140089405Y1093483696D01*
X-140332359Y1093383061D01*
X-140551013Y1093236962D01*
X-140736962Y1093051013D01*
X-140883061Y1092832359D01*
X-140983696Y1092589405D01*
X-141035000Y1092331486D01*
X-146635000Y1092331486D01*
X-146635000Y1095650956D01*
X-146524524Y1095095554D01*
X-146288201Y1094525021D01*
X-145945114Y1094011554D01*
X-145508446Y1093574886D01*
X-144994979Y1093231799D01*
X-144424446Y1092995476D01*
X-143818771Y1092875000D01*
X-143201229Y1092875000D01*
X-142595554Y1092995476D01*
X-142025021Y1093231799D01*
X-141511554Y1093574886D01*
X-141146440Y1093940000D01*
X-136058072Y1093940000D01*
X-136045812Y1093815518D01*
X-136009502Y1093695820D01*
X-135950537Y1093585506D01*
X-135871185Y1093488815D01*
X-135774494Y1093409463D01*
X-135664180Y1093350498D01*
X-135544482Y1093314188D01*
X-135536039Y1093313357D01*
X-135734637Y1093114759D01*
X-135891680Y1092879727D01*
X-135999853Y1092618574D01*
X-136055000Y1092341335D01*
X-136055000Y1092058665D01*
X-135999853Y1091781426D01*
X-135891680Y1091520273D01*
X-135734637Y1091285241D01*
X-135534759Y1091085363D01*
X-135302241Y1090930000D01*
X-135534759Y1090774637D01*
X-135734637Y1090574759D01*
X-135891680Y1090339727D01*
X-135999853Y1090078574D01*
X-136055000Y1089801335D01*
X-136055000Y1089518665D01*
X-135999853Y1089241426D01*
X-135891680Y1088980273D01*
X-135734637Y1088745241D01*
X-135534759Y1088545363D01*
X-135302241Y1088390000D01*
X-135534759Y1088234637D01*
X-135734637Y1088034759D01*
X-135891680Y1087799727D01*
X-135999853Y1087538574D01*
X-136055000Y1087261335D01*
X-136055000Y1086978665D01*
X-135999853Y1086701426D01*
X-135891680Y1086440273D01*
X-135734637Y1086205241D01*
X-135534759Y1086005363D01*
X-135299727Y1085848320D01*
X-135038574Y1085740147D01*
X-134761335Y1085685000D01*
X-134478665Y1085685000D01*
X-134201426Y1085740147D01*
X-133940273Y1085848320D01*
X-133705241Y1086005363D01*
X-133505363Y1086205241D01*
X-133348320Y1086440273D01*
X-133240147Y1086701426D01*
X-133185000Y1086978665D01*
X-133185000Y1087261335D01*
X-133240147Y1087538574D01*
X-133348320Y1087799727D01*
X-133505363Y1088034759D01*
X-133705241Y1088234637D01*
X-133937759Y1088390000D01*
X-133705241Y1088545363D01*
X-133505363Y1088745241D01*
X-133348320Y1088980273D01*
X-133240147Y1089241426D01*
X-133185000Y1089518665D01*
X-133185000Y1089801335D01*
X-133240147Y1090078574D01*
X-133348320Y1090339727D01*
X-133505363Y1090574759D01*
X-133705241Y1090774637D01*
X-133937759Y1090930000D01*
X-133705241Y1091085363D01*
X-133505363Y1091285241D01*
X-133348320Y1091520273D01*
X-133240147Y1091781426D01*
X-133185000Y1092058665D01*
X-133185000Y1092341335D01*
X-133240147Y1092618574D01*
X-133348320Y1092879727D01*
X-133505363Y1093114759D01*
X-133703961Y1093313357D01*
X-133695518Y1093314188D01*
X-133575820Y1093350498D01*
X-133465506Y1093409463D01*
X-133368815Y1093488815D01*
X-133289463Y1093585506D01*
X-133230498Y1093695820D01*
X-133194188Y1093815518D01*
X-133181928Y1093940000D01*
X-133185000Y1094454250D01*
X-133343750Y1094613000D01*
X-134493000Y1094613000D01*
X-134493000Y1094593000D01*
X-134747000Y1094593000D01*
X-134747000Y1094613000D01*
X-135896250Y1094613000D01*
X-136055000Y1094454250D01*
X-136058072Y1093940000D01*
X-141146440Y1093940000D01*
X-141074886Y1094011554D01*
X-140731799Y1094525021D01*
X-140495476Y1095095554D01*
X-140407071Y1095540000D01*
X-136058072Y1095540000D01*
X-136055000Y1095025750D01*
X-135896250Y1094867000D01*
X-134747000Y1094867000D01*
X-134747000Y1096016250D01*
X-134493000Y1096016250D01*
X-134493000Y1094867000D01*
X-133343750Y1094867000D01*
X-133329415Y1094881335D01*
X-128435000Y1094881335D01*
X-128435000Y1094598665D01*
X-128379853Y1094321426D01*
X-128271680Y1094060273D01*
X-128114637Y1093825241D01*
X-127914759Y1093625363D01*
X-127682241Y1093470000D01*
X-127914759Y1093314637D01*
X-128114637Y1093114759D01*
X-128271680Y1092879727D01*
X-128379853Y1092618574D01*
X-128435000Y1092341335D01*
X-128435000Y1092058665D01*
X-128379853Y1091781426D01*
X-128271680Y1091520273D01*
X-128114637Y1091285241D01*
X-127914759Y1091085363D01*
X-127682241Y1090930000D01*
X-127914759Y1090774637D01*
X-128114637Y1090574759D01*
X-128271680Y1090339727D01*
X-128379853Y1090078574D01*
X-128435000Y1089801335D01*
X-128435000Y1089518665D01*
X-128379853Y1089241426D01*
X-128271680Y1088980273D01*
X-128114637Y1088745241D01*
X-127914759Y1088545363D01*
X-127682241Y1088390000D01*
X-127914759Y1088234637D01*
X-128114637Y1088034759D01*
X-128271680Y1087799727D01*
X-128379853Y1087538574D01*
X-128435000Y1087261335D01*
X-128435000Y1086978665D01*
X-128379853Y1086701426D01*
X-128271680Y1086440273D01*
X-128114637Y1086205241D01*
X-127914759Y1086005363D01*
X-127679727Y1085848320D01*
X-127418574Y1085740147D01*
X-127141335Y1085685000D01*
X-126858665Y1085685000D01*
X-126581426Y1085740147D01*
X-126320273Y1085848320D01*
X-126085241Y1086005363D01*
X-125885363Y1086205241D01*
X-125728320Y1086440273D01*
X-125620147Y1086701426D01*
X-125565000Y1086978665D01*
X-125565000Y1087261335D01*
X-125620147Y1087538574D01*
X-125728320Y1087799727D01*
X-125885363Y1088034759D01*
X-126085241Y1088234637D01*
X-126317759Y1088390000D01*
X-126085241Y1088545363D01*
X-125885363Y1088745241D01*
X-125728320Y1088980273D01*
X-125620147Y1089241426D01*
X-125572306Y1089481937D01*
X-125495000Y1089481937D01*
X-125495000Y1089278059D01*
X-125455226Y1089078100D01*
X-125377205Y1088889742D01*
X-125263937Y1088720224D01*
X-125119774Y1088576061D01*
X-124950256Y1088462793D01*
X-124761898Y1088384772D01*
X-124561939Y1088344998D01*
X-124499801Y1088344998D01*
X-121638796Y1085483991D01*
X-121615002Y1085454998D01*
X-121586009Y1085431204D01*
X-121586005Y1085431200D01*
X-121515316Y1085373188D01*
X-121499277Y1085360025D01*
X-121367248Y1085289453D01*
X-121223987Y1085245996D01*
X-121112334Y1085234999D01*
X-121112325Y1085234999D01*
X-121075002Y1085231323D01*
X-121037679Y1085234999D01*
X-118322798Y1085234999D01*
X-115632401Y1082544601D01*
X-115786013Y1082441962D01*
X-115885000Y1082342975D01*
X-115983987Y1082441962D01*
X-116202641Y1082588061D01*
X-116445595Y1082688696D01*
X-116703514Y1082740000D01*
X-116966486Y1082740000D01*
X-117224405Y1082688696D01*
X-117467359Y1082588061D01*
X-117686013Y1082441962D01*
X-117871962Y1082256013D01*
X-118018061Y1082037359D01*
X-118118696Y1081794405D01*
X-118170000Y1081536486D01*
X-118170000Y1081273514D01*
X-118118696Y1081015595D01*
X-118018061Y1080772641D01*
X-117871962Y1080553987D01*
X-117686013Y1080368038D01*
X-117467359Y1080221939D01*
X-117224405Y1080121304D01*
X-116966486Y1080070000D01*
X-116703514Y1080070000D01*
X-116445595Y1080121304D01*
X-116202641Y1080221939D01*
X-115983987Y1080368038D01*
X-115885000Y1080467025D01*
X-115786013Y1080368038D01*
X-115567359Y1080221939D01*
X-115324405Y1080121304D01*
X-115066486Y1080070000D01*
X-114804802Y1080070000D01*
X-114974801Y1079900000D01*
X-115036939Y1079900000D01*
X-115236898Y1079860226D01*
X-115425256Y1079782205D01*
X-115594774Y1079668937D01*
X-115738937Y1079524774D01*
X-115852205Y1079355256D01*
X-115930226Y1079166898D01*
X-115970000Y1078966939D01*
X-115970000Y1078763061D01*
X-115930226Y1078563102D01*
X-115852205Y1078374744D01*
X-115738937Y1078205226D01*
X-115594774Y1078061063D01*
X-115425256Y1077947795D01*
X-115236898Y1077869774D01*
X-115036939Y1077830000D01*
X-114833061Y1077830000D01*
X-114633102Y1077869774D01*
X-114444744Y1077947795D01*
X-114275226Y1078061063D01*
X-114131063Y1078205226D01*
X-114017795Y1078374744D01*
X-113939774Y1078563102D01*
X-113900000Y1078763061D01*
X-113900000Y1078825199D01*
X-113398995Y1079326203D01*
X-113369998Y1079350000D01*
X-113275025Y1079465725D01*
X-113204453Y1079597754D01*
X-113160996Y1079741015D01*
X-113149999Y1079852668D01*
X-113149999Y1079852677D01*
X-113146323Y1079890000D01*
X-113149999Y1079927323D01*
X-113149999Y1080901486D01*
X-111825000Y1080901486D01*
X-111825000Y1080638514D01*
X-111773696Y1080380595D01*
X-111673061Y1080137641D01*
X-111526962Y1079918987D01*
X-111341013Y1079733038D01*
X-111122359Y1079586939D01*
X-110879405Y1079486304D01*
X-110621486Y1079435000D01*
X-110358514Y1079435000D01*
X-110100595Y1079486304D01*
X-109857641Y1079586939D01*
X-109638987Y1079733038D01*
X-109453038Y1079918987D01*
X-109306939Y1080137641D01*
X-109206304Y1080380595D01*
X-109155000Y1080638514D01*
X-109155000Y1080901486D01*
X-109206304Y1081159405D01*
X-109306939Y1081402359D01*
X-109453038Y1081621013D01*
X-109555478Y1081723453D01*
X-109423241Y1081867340D01*
X-109287147Y1082090877D01*
X-109197278Y1082336670D01*
X-109319799Y1082543000D01*
X-110363000Y1082543000D01*
X-110363000Y1082523000D01*
X-110617000Y1082523000D01*
X-110617000Y1082543000D01*
X-111660201Y1082543000D01*
X-111782722Y1082336670D01*
X-111692853Y1082090877D01*
X-111556759Y1081867340D01*
X-111424522Y1081723453D01*
X-111526962Y1081621013D01*
X-111673061Y1081402359D01*
X-111773696Y1081159405D01*
X-111825000Y1080901486D01*
X-113149999Y1080901486D01*
X-113149999Y1081859679D01*
X-113146323Y1081897002D01*
X-113149999Y1081934325D01*
X-113149999Y1081934334D01*
X-113160996Y1082045987D01*
X-113204453Y1082189248D01*
X-113275025Y1082321277D01*
X-113369998Y1082437002D01*
X-113398996Y1082460800D01*
X-113941526Y1083003330D01*
X-111782722Y1083003330D01*
X-111660201Y1082797000D01*
X-110617000Y1082797000D01*
X-110617000Y1083839374D01*
X-110363000Y1083839374D01*
X-110363000Y1082797000D01*
X-109319799Y1082797000D01*
X-109197278Y1083003330D01*
X-109287147Y1083249123D01*
X-109423241Y1083472660D01*
X-109600330Y1083665351D01*
X-109811608Y1083819792D01*
X-110048956Y1083930047D01*
X-110156671Y1083962716D01*
X-110363000Y1083839374D01*
X-110617000Y1083839374D01*
X-110823329Y1083962716D01*
X-110931044Y1083930047D01*
X-111168392Y1083819792D01*
X-111379670Y1083665351D01*
X-111556759Y1083472660D01*
X-111692853Y1083249123D01*
X-111782722Y1083003330D01*
X-113941526Y1083003330D01*
X-116804792Y1085866596D01*
X-116773486Y1085883329D01*
X-116701903Y1086127298D01*
X-117515000Y1086940395D01*
X-117529143Y1086926253D01*
X-117708748Y1087105858D01*
X-117694605Y1087120000D01*
X-117335395Y1087120000D01*
X-116522298Y1086306903D01*
X-116278329Y1086378486D01*
X-116157429Y1086633996D01*
X-116088700Y1086908184D01*
X-116074783Y1087190512D01*
X-116116213Y1087470130D01*
X-116211397Y1087736292D01*
X-116278329Y1087861514D01*
X-116522298Y1087933097D01*
X-117335395Y1087120000D01*
X-117694605Y1087120000D01*
X-118507702Y1087933097D01*
X-118576928Y1087912785D01*
X-118576928Y1087920000D01*
X-118589188Y1088044482D01*
X-118609882Y1088112702D01*
X-118328097Y1088112702D01*
X-117515000Y1087299605D01*
X-116701903Y1088112702D01*
X-116773486Y1088356671D01*
X-117028996Y1088477571D01*
X-117303184Y1088546300D01*
X-117585512Y1088560217D01*
X-117865130Y1088518787D01*
X-118131292Y1088423603D01*
X-118256514Y1088356671D01*
X-118328097Y1088112702D01*
X-118609882Y1088112702D01*
X-118625498Y1088164180D01*
X-118684463Y1088274494D01*
X-118763815Y1088371185D01*
X-118860506Y1088450537D01*
X-118970820Y1088509502D01*
X-119090518Y1088545812D01*
X-119215000Y1088558072D01*
X-120815000Y1088558072D01*
X-120939482Y1088545812D01*
X-121059180Y1088509502D01*
X-121169494Y1088450537D01*
X-121266185Y1088371185D01*
X-121345537Y1088274494D01*
X-121404502Y1088164180D01*
X-121440812Y1088044482D01*
X-121453072Y1087920000D01*
X-121453072Y1087447872D01*
X-123425000Y1089419799D01*
X-123425000Y1089481937D01*
X-123464774Y1089681896D01*
X-123542795Y1089870254D01*
X-123656063Y1090039772D01*
X-123800226Y1090183935D01*
X-123969744Y1090297203D01*
X-124158102Y1090375224D01*
X-124358061Y1090414998D01*
X-124561939Y1090414998D01*
X-124761898Y1090375224D01*
X-124950256Y1090297203D01*
X-125119774Y1090183935D01*
X-125263937Y1090039772D01*
X-125377205Y1089870254D01*
X-125455226Y1089681896D01*
X-125495000Y1089481937D01*
X-125572306Y1089481937D01*
X-125565000Y1089518665D01*
X-125565000Y1089801335D01*
X-125620147Y1090078574D01*
X-125728320Y1090339727D01*
X-125885363Y1090574759D01*
X-126085241Y1090774637D01*
X-126317759Y1090930000D01*
X-126085241Y1091085363D01*
X-125885363Y1091285241D01*
X-125728320Y1091520273D01*
X-125620147Y1091781426D01*
X-125565000Y1092058665D01*
X-125565000Y1092341335D01*
X-125620147Y1092618574D01*
X-125728320Y1092879727D01*
X-125885363Y1093114759D01*
X-126085241Y1093314637D01*
X-126317759Y1093470000D01*
X-126085241Y1093625363D01*
X-125885363Y1093825241D01*
X-125728320Y1094060273D01*
X-125620147Y1094321426D01*
X-125565000Y1094598665D01*
X-125565000Y1094881335D01*
X-125620147Y1095158574D01*
X-125728320Y1095419727D01*
X-125808683Y1095540000D01*
X-123358072Y1095540000D01*
X-123358072Y1093940000D01*
X-123345812Y1093815518D01*
X-123309502Y1093695820D01*
X-123250537Y1093585506D01*
X-123171185Y1093488815D01*
X-123074494Y1093409463D01*
X-122964180Y1093350498D01*
X-122844482Y1093314188D01*
X-122720000Y1093301928D01*
X-121120000Y1093301928D01*
X-120995518Y1093314188D01*
X-120875820Y1093350498D01*
X-120765506Y1093409463D01*
X-120668815Y1093488815D01*
X-120589463Y1093585506D01*
X-120530498Y1093695820D01*
X-120514883Y1093747298D01*
X-120233097Y1093747298D01*
X-120161514Y1093503329D01*
X-119906004Y1093382429D01*
X-119631816Y1093313700D01*
X-119349488Y1093299783D01*
X-119069870Y1093341213D01*
X-118803708Y1093436397D01*
X-118678486Y1093503329D01*
X-118606903Y1093747298D01*
X-119420000Y1094560395D01*
X-120233097Y1093747298D01*
X-120514883Y1093747298D01*
X-120494188Y1093815518D01*
X-120481928Y1093940000D01*
X-120481928Y1093947215D01*
X-120412702Y1093926903D01*
X-119599605Y1094740000D01*
X-119240395Y1094740000D01*
X-118427298Y1093926903D01*
X-118183329Y1093998486D01*
X-118062429Y1094253996D01*
X-117993700Y1094528184D01*
X-117979783Y1094810512D01*
X-118021213Y1095090130D01*
X-118116397Y1095356292D01*
X-118183329Y1095481514D01*
X-118427298Y1095553097D01*
X-119240395Y1094740000D01*
X-119599605Y1094740000D01*
X-120412702Y1095553097D01*
X-120481928Y1095532785D01*
X-120481928Y1095540000D01*
X-120494188Y1095664482D01*
X-120514882Y1095732702D01*
X-120233097Y1095732702D01*
X-119420000Y1094919605D01*
X-118606903Y1095732702D01*
X-118678486Y1095976671D01*
X-118933996Y1096097571D01*
X-119208184Y1096166300D01*
X-119490512Y1096180217D01*
X-119770130Y1096138787D01*
X-120036292Y1096043603D01*
X-120161514Y1095976671D01*
X-120233097Y1095732702D01*
X-120514882Y1095732702D01*
X-120530498Y1095784180D01*
X-120589463Y1095894494D01*
X-120668815Y1095991185D01*
X-120765506Y1096070537D01*
X-120875820Y1096129502D01*
X-120995518Y1096165812D01*
X-121120000Y1096178072D01*
X-122720000Y1096178072D01*
X-122844482Y1096165812D01*
X-122964180Y1096129502D01*
X-123074494Y1096070537D01*
X-123171185Y1095991185D01*
X-123250537Y1095894494D01*
X-123309502Y1095784180D01*
X-123345812Y1095664482D01*
X-123358072Y1095540000D01*
X-125808683Y1095540000D01*
X-125885363Y1095654759D01*
X-126085241Y1095854637D01*
X-126320273Y1096011680D01*
X-126581426Y1096119853D01*
X-126858665Y1096175000D01*
X-127141335Y1096175000D01*
X-127418574Y1096119853D01*
X-127679727Y1096011680D01*
X-127914759Y1095854637D01*
X-128114637Y1095654759D01*
X-128271680Y1095419727D01*
X-128379853Y1095158574D01*
X-128435000Y1094881335D01*
X-133329415Y1094881335D01*
X-133185000Y1095025750D01*
X-133181928Y1095540000D01*
X-133194188Y1095664482D01*
X-133230498Y1095784180D01*
X-133289463Y1095894494D01*
X-133368815Y1095991185D01*
X-133465506Y1096070537D01*
X-133575820Y1096129502D01*
X-133695518Y1096165812D01*
X-133820000Y1096178072D01*
X-134334250Y1096175000D01*
X-134493000Y1096016250D01*
X-134747000Y1096016250D01*
X-134905750Y1096175000D01*
X-135420000Y1096178072D01*
X-135544482Y1096165812D01*
X-135664180Y1096129502D01*
X-135774494Y1096070537D01*
X-135871185Y1095991185D01*
X-135950537Y1095894494D01*
X-136009502Y1095784180D01*
X-136045812Y1095664482D01*
X-136058072Y1095540000D01*
X-140407071Y1095540000D01*
X-140375000Y1095701229D01*
X-140375000Y1096318771D01*
X-140495476Y1096924446D01*
X-140731799Y1097494979D01*
X-141074886Y1098008446D01*
X-141196440Y1098130000D01*
X-115153072Y1098130000D01*
X-115153072Y1096430000D01*
X-115140812Y1096305518D01*
X-115104502Y1096185820D01*
X-115045537Y1096075506D01*
X-114966185Y1095978815D01*
X-114869494Y1095899463D01*
X-114759180Y1095840498D01*
X-114639482Y1095804188D01*
X-114515000Y1095791928D01*
X-112815000Y1095791928D01*
X-112690518Y1095804188D01*
X-112570820Y1095840498D01*
X-112460506Y1095899463D01*
X-112363815Y1095978815D01*
X-112284463Y1096075506D01*
X-112225498Y1096185820D01*
X-112201034Y1096266466D01*
X-112125269Y1096182412D01*
X-111891920Y1096008359D01*
X-111629099Y1095883175D01*
X-111481890Y1095838524D01*
X-111252000Y1095959845D01*
X-111252000Y1097153000D01*
X-110998000Y1097153000D01*
X-110998000Y1095959845D01*
X-110768110Y1095838524D01*
X-110620901Y1095883175D01*
X-110358080Y1096008359D01*
X-110124731Y1096182412D01*
X-109929822Y1096398645D01*
X-109780843Y1096648748D01*
X-109683519Y1096923109D01*
X-109804186Y1097153000D01*
X-110998000Y1097153000D01*
X-111252000Y1097153000D01*
X-111272000Y1097153000D01*
X-111272000Y1097407000D01*
X-111252000Y1097407000D01*
X-111252000Y1098600155D01*
X-110998000Y1098600155D01*
X-110998000Y1097407000D01*
X-109804186Y1097407000D01*
X-109683519Y1097636891D01*
X-109780843Y1097911252D01*
X-109929822Y1098161355D01*
X-110124731Y1098377588D01*
X-110358080Y1098551641D01*
X-110620901Y1098676825D01*
X-110768110Y1098721476D01*
X-110998000Y1098600155D01*
X-111252000Y1098600155D01*
X-111481890Y1098721476D01*
X-111629099Y1098676825D01*
X-111891920Y1098551641D01*
X-112125269Y1098377588D01*
X-112201034Y1098293534D01*
X-112225498Y1098374180D01*
X-112284463Y1098484494D01*
X-112363815Y1098581185D01*
X-112460506Y1098660537D01*
X-112570820Y1098719502D01*
X-112690518Y1098755812D01*
X-112815000Y1098768072D01*
X-114515000Y1098768072D01*
X-114639482Y1098755812D01*
X-114759180Y1098719502D01*
X-114869494Y1098660537D01*
X-114966185Y1098581185D01*
X-115045537Y1098484494D01*
X-115104502Y1098374180D01*
X-115140812Y1098254482D01*
X-115153072Y1098130000D01*
X-141196440Y1098130000D01*
X-141511554Y1098445114D01*
X-142025021Y1098788201D01*
X-142595554Y1099024524D01*
X-143150956Y1099135000D01*
X-107746694Y1099135000D01*
X-108040983Y1098938363D01*
G37*
%TD.AperFunction*%
%TD*%
M02*
