%TF.GenerationSoftware,KiCad,Pcbnew,(5.1.9-0-10_14)*%
%TF.CreationDate,2021-04-03T15:31:47+02:00*%
%TF.ProjectId,full_circuit,66756c6c-5f63-4697-9263-7569742e6b69,rev?*%
%TF.SameCoordinates,Original*%
%TF.FileFunction,Soldermask,Bot*%
%TF.FilePolarity,Negative*%
%FSLAX46Y46*%
G04 Gerber Fmt 4.6, Leading zero omitted, Abs format (unit mm)*
G04 Created by KiCad (PCBNEW (5.1.9-0-10_14)) date 2021-04-03 15:31:47*
%MOMM*%
%LPD*%
G01*
G04 APERTURE LIST*
%ADD10R,1.600000X1.600000*%
%ADD11O,1.600000X1.600000*%
%ADD12O,1.400000X1.400000*%
%ADD13C,1.400000*%
%ADD14O,1.050000X1.500000*%
%ADD15R,1.050000X1.500000*%
%ADD16C,5.000000*%
%ADD17C,3.000000*%
%ADD18C,2.000000*%
%ADD19C,1.620000*%
%ADD20R,1.700000X1.700000*%
%ADD21O,1.700000X1.700000*%
%ADD22C,1.600000*%
%ADD23R,1.800000X1.800000*%
%ADD24C,1.800000*%
G04 APERTURE END LIST*
D10*
%TO.C,U2*%
X-134620000Y1094740000D03*
D11*
X-127000000Y1087120000D03*
X-134620000Y1092200000D03*
X-127000000Y1089660000D03*
X-134620000Y1089660000D03*
X-127000000Y1092200000D03*
X-134620000Y1087120000D03*
X-127000000Y1094740000D03*
%TD*%
D12*
%TO.C,R4*%
X-116835000Y1081405000D03*
D13*
X-114935000Y1081405000D03*
%TD*%
%TO.C,R5*%
X-110490000Y1080770000D03*
D12*
X-110490000Y1082670000D03*
%TD*%
D14*
%TO.C,Q1*%
X-120015000Y1075690000D03*
X-121285000Y1075690000D03*
D15*
X-118745000Y1075690000D03*
%TD*%
D16*
%TO.C,REF\u002A\u002A*%
X-143510000Y1062990000D03*
%TD*%
D17*
%TO.C,REF\u002A\u002A*%
X-106680000Y1097280000D03*
%TD*%
D18*
%TO.C,REF\u002A\u002A*%
X-106680000Y1061720000D03*
%TD*%
D16*
%TO.C,REF\u002A\u002A*%
X-143510000Y1096010000D03*
%TD*%
D15*
%TO.C,Q2*%
X-110490000Y1075690000D03*
D14*
X-113030000Y1075690000D03*
X-111760000Y1075690000D03*
%TD*%
%TO.C,Q3*%
X-140335000Y1080770000D03*
X-141605000Y1080770000D03*
D15*
X-139065000Y1080770000D03*
%TD*%
D12*
%TO.C,R1*%
X-140970000Y1069340000D03*
D13*
X-140970000Y1071240000D03*
%TD*%
%TO.C,R2*%
X-133350000Y1075690000D03*
D12*
X-135250000Y1075690000D03*
%TD*%
%TO.C,R3*%
X-137800000Y1092200000D03*
D13*
X-139700000Y1092200000D03*
%TD*%
%TO.C,R6*%
X-113665000Y1068070000D03*
D12*
X-113665000Y1069970000D03*
%TD*%
%TO.C,R7*%
X-137800000Y1089660000D03*
D13*
X-139700000Y1089660000D03*
%TD*%
%TO.C,R8*%
X-125730000Y1078865000D03*
D12*
X-125730000Y1080765000D03*
%TD*%
D19*
%TO.C,RV1*%
X-137080000Y1064260000D03*
X-134580000Y1061760000D03*
X-132080000Y1064260000D03*
%TD*%
D20*
%TO.C,BT1*%
X-113665000Y1097280000D03*
D21*
X-111125000Y1097280000D03*
%TD*%
%TO.C,PZ1*%
X-124460000Y1066800000D03*
D20*
X-124460000Y1064260000D03*
%TD*%
D10*
%TO.C,C1*%
X-120015000Y1087120000D03*
D22*
X-117515000Y1087120000D03*
%TD*%
%TO.C,C2*%
X-119420000Y1094740000D03*
D10*
X-121920000Y1094740000D03*
%TD*%
D23*
%TO.C,D1*%
X-133350000Y1080770000D03*
D24*
X-130810000Y1080770000D03*
%TD*%
M02*
